<svg width="58" height="58" viewBox="0 0 58 58" fill="none" xmlns="http://www.w3.org/2000/svg">
<path d="M16.6796 16.4315L19.404 13.7071C19.7945 13.3166 20.4277 13.3166 20.8182 13.7071L26.5151 19.404C26.9056 19.7945 26.9056 20.4277 26.5151 20.8182L24.1498 23.1836C23.8613 23.4721 23.7897 23.9128 23.9722 24.2777C26.0818 28.497 29.503 31.9182 33.7223 34.0278C34.0872 34.2103 34.5279 34.1387 34.8164 33.8502L37.1818 31.4849C37.5723 31.0944 38.2055 31.0944 38.596 31.4849L44.2929 37.1818C44.6834 37.5723 44.6834 38.2055 44.2929 38.596L41.5685 41.3204C39.4572 43.4317 36.1146 43.6693 33.7259 41.8777L26.2952 36.3048C24.5517 34.9971 23.0029 33.4483 21.6952 31.7048L16.1223 24.2741C14.3307 21.8854 14.5683 18.5428 16.6796 16.4315Z" stroke="white" stroke-width="2"/>
<circle cx="29" cy="29" r="28" stroke="white" stroke-width="2"/>
</svg>
