<svg width="14" height="21" viewBox="0 0 14 21" fill="none" xmlns="http://www.w3.org/2000/svg">
<path d="M1.14181 3.95387C0.360094 3.17349 0.359011 1.90717 1.13939 1.12545C1.91977 0.343732 3.1861 0.342649 3.96782 1.12303L1.14181 3.95387ZM10.5685 10.5385L11.9815 9.12303L13.3994 10.5385L11.9815 11.9539L10.5685 10.5385ZM3.96782 19.9539C3.1861 20.7343 1.91977 20.7332 1.13939 19.9515C0.359011 19.1697 0.360094 17.9034 1.14181 17.123L3.96782 19.9539ZM3.96782 1.12303L11.9815 9.12303L9.15551 11.9539L1.14181 3.95387L3.96782 1.12303ZM11.9815 11.9539L3.96782 19.9539L1.14181 17.123L9.15551 9.12303L11.9815 11.9539Z" fill="#B61F7E"/>
</svg>
