<svg width="26" height="28" viewBox="0 0 26 28" fill="none" xmlns="http://www.w3.org/2000/svg">
<path d="M2.67962 5.09815L4.07067 3.70711C4.46119 3.31658 5.09436 3.31658 5.48488 3.70711L9.84845 8.07067C10.239 8.46119 10.239 9.09436 9.84845 9.48488L8.05919 11.2741C7.82478 11.5086 7.76666 11.8667 7.91492 12.1632C9.62898 15.5913 12.4087 18.371 15.8368 20.0851C16.1333 20.2333 16.4914 20.1752 16.7259 19.9408L18.5151 18.1516C18.9056 17.761 19.5388 17.761 19.9293 18.1516L24.2929 22.5151C24.6834 22.9056 24.6834 23.5388 24.2929 23.9293L22.9018 25.3204C20.7905 27.4317 17.4479 27.6693 15.0592 25.8777L10.2952 22.3048C8.55171 20.9971 7.00289 19.4483 5.69524 17.7048L2.12226 12.9408C0.330722 10.5521 0.568273 7.2095 2.67962 5.09815Z" stroke="#B61F7E"/>
</svg>
