<svg width="174" height="72" viewBox="0 0 174 72" fill="none" xmlns="http://www.w3.org/2000/svg">
<g clip-path="url(#clip0_826_239)">
<path d="M141.733 46.2342C139.285 52.5104 140.102 59.1633 144.046 64.9929C146.911 69.2031 147.439 73.2722 147.501 75.4888C151.846 72.8161 154.855 70.3254 156.486 68.1034C159.646 63.7801 158.831 60.5923 157.621 58.6789C157.297 59.8761 156.377 61.5592 153.52 61.3774C148.885 61.0856 146.166 53.6706 149.922 46.3542C151.159 43.9711 154.597 41.1388 158.525 38.892C157.26 38.5572 154.218 37.6052 150.479 35.5109C146.355 38.2909 143.46 41.8171 141.733 46.2342Z" fill="#9747FF"/>
<path d="M161.705 81.4172C161.071 78.4519 160.112 79.5856 160.509 74.651C160.519 74.8799 160.587 77.1218 162.592 78.359C165.145 79.9403 164.371 82.3317 164.258 82.6362C164.765 82.0841 172.094 73.5693 166.605 62.6509C164.424 58.2867 160.757 57.5929 158.918 57.5361C159.511 58.3776 160.061 59.4437 160.319 60.7324C160.364 60.946 160.383 61.1666 160.41 61.3788C160.616 61.4692 160.818 61.5596 161.015 61.6585C162.007 62.185 162.851 62.9008 163.511 63.7144C164.163 64.535 164.709 65.4171 165.059 66.3577C165.273 66.8021 165.383 67.2898 165.554 67.7552C165.666 68.226 165.769 68.7039 165.881 69.1747C165.7 68.7332 165.529 68.265 165.339 67.815C165.106 67.386 164.937 66.9192 164.669 66.5224C164.188 65.6798 163.556 64.9196 162.859 64.2647C162.171 63.6181 161.355 63.1131 160.476 62.7891C160.434 63.5349 160.3 64.2831 160.073 65.048C160.297 65.2158 160.531 65.3765 160.738 65.5751C161.934 66.5699 162.835 67.8042 163.504 69.115C164.166 70.4329 164.5 71.8285 164.761 73.2099C164.857 73.9139 164.902 74.6177 164.966 75.3033L164.97 77.3807L164.754 75.3125C164.614 74.6295 164.492 73.9466 164.317 73.279C163.926 71.9632 163.458 70.6515 162.71 69.4865C161.973 68.3314 161.03 67.3049 159.913 66.5266C159.807 66.4604 159.686 66.3926 159.574 66.3165C159.276 66.9857 158.92 67.6575 158.471 68.3319C158.67 68.6316 158.843 68.9397 159.007 69.2548C159.736 70.6866 160.165 72.1892 160.352 73.6842C159.876 72.2362 159.169 70.8648 158.255 69.6713C158.131 69.5109 157.989 69.3658 157.865 69.2054C157.599 69.5474 157.332 69.8739 157.022 70.2201C157.445 71.2086 157.766 72.1913 158.033 73.2201C158.463 74.9587 158.707 76.7179 158.734 78.4625C158.726 80.2196 158.625 81.9624 158.243 83.6511C158.111 84.5076 157.828 85.337 157.605 86.1623C157.349 86.9847 157.025 87.7872 156.744 88.5983C156.951 87.7716 157.207 86.9492 157.39 86.1125C157.523 85.2561 157.745 84.4308 157.795 83.5839C158.025 81.9005 157.981 80.1727 157.842 78.4981C157.677 76.8121 157.292 75.127 156.744 73.5229C156.505 72.8158 156.208 72.0958 155.876 71.4081C155.626 71.642 155.39 71.8773 155.113 72.1182C155.131 72.2292 155.192 72.3347 155.218 72.4359C155.463 73.5307 155.576 74.6322 155.587 75.711C155.583 76.7883 155.511 77.8598 155.364 78.9171C155.219 79.9575 155.006 81.0104 154.77 82.021C154.865 80.9763 154.927 79.9286 154.921 78.878C154.916 77.8273 154.853 76.7779 154.702 75.7424C154.554 74.8149 154.337 73.9168 154.024 73.0353C153.721 73.2817 153.427 73.5225 153.092 73.7674C153.068 75.3798 152.895 76.9497 152.589 78.5262C152.063 81.1135 151.102 83.635 149.723 85.8899C149.35 86.4353 149.056 87.0525 148.62 87.543L147.355 89.0833C146.384 90.0063 145.494 91.0012 144.35 91.7426C142.243 93.4155 139.715 94.4791 137.203 95.4331C139.665 94.3483 142.102 93.1623 144.069 91.4202C145.132 90.6393 145.949 89.6133 146.843 88.6942L147.958 87.1255C148.371 86.6251 148.613 86.0204 148.936 85.4721C150.145 83.2378 150.907 80.7775 151.268 78.2896C151.426 77.1733 151.502 76.0527 151.519 74.9178C151.084 75.2313 150.61 75.5503 150.127 75.8594C149.72 77.6632 149.172 79.433 148.442 81.1545C147.06 84.328 145.03 87.3691 142.064 89.4428C140.616 90.4657 138.874 91.207 137.237 91.7939C135.604 92.4245 133.976 93.114 132.501 94.0343C131.765 94.486 131.098 95.018 130.501 95.6316C129.946 96.2566 129.493 96.9802 129.204 97.7674C128.652 99.3671 128.629 101.092 128.506 102.79C128.561 101.086 128.491 99.3653 129.006 97.7036C129.255 96.8714 129.686 96.1028 130.245 95.4287C130.836 94.7729 131.497 94.1819 132.236 93.6965C133.701 92.6736 135.326 91.9251 136.963 91.2117L138.192 90.6953L139.35 90.114C140.154 89.7945 140.806 89.2443 141.511 88.7728C144.208 86.7124 146.004 83.7647 147.195 80.6778C147.628 79.4991 147.97 78.2864 148.255 77.0441C147.859 77.2931 147.472 77.5337 147.06 77.7826C146.254 79.6331 145.22 81.3861 143.944 82.9657C143.262 83.8586 142.443 84.65 141.632 85.4498C140.75 86.1681 139.9 86.9229 138.919 87.5088C137.99 88.1904 136.939 88.6778 135.928 89.2102C134.917 89.7258 133.902 90.1656 132.932 90.7108C130.985 91.7731 129.141 93.0113 127.706 94.6073C126.255 96.185 125.384 98.2334 125.569 100.374C125.624 101.446 125.94 102.496 126.128 103.595C126.317 104.677 126.454 105.773 126.431 106.881C126.425 107.974 126.191 109.076 125.688 110.066C125.338 110.748 124.826 111.368 124.188 111.859C124.777 111.346 125.265 110.717 125.591 110.009C126.043 109.032 126.233 107.953 126.221 106.874C126.202 105.787 126.02 104.714 125.807 103.638C125.592 102.58 125.224 101.525 125.124 100.4C125.013 99.2971 125.131 98.1541 125.489 97.0861C125.871 96.0281 126.457 95.0619 127.181 94.1972C128.634 92.4762 130.509 91.1314 132.462 89.9862C134.427 88.8158 136.519 87.9575 138.247 86.66C139.17 86.0782 139.953 85.3204 140.766 84.6118C141.5 83.8328 142.249 83.0693 142.862 82.2057C144.017 80.682 144.929 78.9891 145.644 77.2156L145.661 76.9474C145.68 76.9151 145.89 75.0462 145.328 72.3802C145.003 73.7193 144.604 75.0273 144.081 76.3027C143.346 78.2348 142.216 80.0213 140.928 81.6612C140.219 82.4347 139.568 83.2546 138.716 83.8985C138.308 84.2218 137.928 84.5987 137.488 84.8868L136.143 85.7415C135.913 85.8926 135.695 86.0381 135.459 86.1638L134.738 86.4906L133.272 87.1511C132.318 87.5868 131.351 87.9368 130.435 88.4189C128.613 89.3566 126.989 90.6262 125.677 92.1298C123.031 95.1862 122.082 99.434 122.866 103.418C121.936 99.4645 122.708 95.1039 125.314 91.876C126.608 90.2628 128.248 88.8991 130.092 87.8632C131.004 87.3403 132.006 86.9412 132.936 86.4788L134.319 85.797L135.006 85.4505C135.217 85.3303 135.428 85.1777 135.632 85.0336L136.874 84.1885C137.29 83.8905 137.625 83.5191 138.009 83.2027C138.791 82.5699 139.385 81.7709 140.031 81.0198C141.173 79.4103 142.189 77.7107 142.81 75.8442C143.612 73.6819 144.09 71.4203 144.303 69.1202C143.899 68.1163 143.346 67.0838 142.642 66.0215C142.513 67.2066 142.342 68.3804 142.102 69.5498C141.755 71.2063 141.286 72.8301 140.692 74.4017C140.098 75.9901 139.316 77.4909 138.429 78.9241C139.984 75.9491 140.832 72.6871 141.22 69.4014C141.397 67.7486 141.492 66.0901 141.485 64.4411C141.484 64.3315 141.491 64.2318 141.481 64.1292C140.729 62.7971 140.123 61.4316 139.658 60.0511C139.215 60.8772 138.796 61.7469 138.492 62.6423C138.061 63.8055 137.746 64.9944 137.462 66.2184C137.188 67.4341 136.987 68.6653 136.802 69.9149C136.837 68.6551 136.897 67.3897 137.021 66.1442C137.165 64.8847 137.332 63.6336 137.634 62.3942C137.901 61.1518 138.311 59.9281 138.854 58.7483C138.925 58.5589 139.04 58.3653 139.128 58.1788C138.919 57.2723 138.768 56.3785 138.67 55.4541C138.487 55.6769 138.281 55.8885 138.103 56.1197C136.954 57.5761 136.021 59.1903 135.275 60.8962C134.597 62.6221 134.039 64.4171 133.771 66.2732C133.576 67.2011 133.554 68.1323 133.449 69.0773C133.411 70.0253 133.431 70.9679 133.41 71.9187C133.348 70.9634 133.26 70.0151 133.223 69.0697C133.261 68.1217 133.199 67.1496 133.329 66.2173C133.456 64.3074 133.878 62.4292 134.438 60.6019C135.065 58.7804 135.914 57.0157 137 55.378C137.475 54.6798 137.992 54.0112 138.565 53.3708C138.563 52.2513 138.664 51.1223 138.848 50.0174C138.706 50.1252 138.558 50.2231 138.415 50.3295C137.254 51.1972 136.234 52.2423 135.357 53.3988C134.521 54.5666 133.779 55.8414 133.25 57.201C132.936 57.8674 132.771 58.5791 132.524 59.2681C132.325 59.9768 132.175 60.69 132.01 61.4185C132.109 60.6856 132.184 59.9428 132.309 59.2183C132.474 58.5066 132.583 57.7498 132.823 57.0679C133.223 55.6166 133.845 54.2403 134.597 52.9389C135.381 51.6417 136.356 50.4167 137.503 49.3705C138.068 48.865 138.647 48.3931 139.288 47.9777C139.501 47.1762 139.747 46.3945 140.053 45.6102C140.122 45.4559 140.182 45.3085 140.251 45.1528C139.58 45.4994 138.923 45.8811 138.289 46.3064C137.16 47.0661 136.132 47.9763 135.214 48.9782C134.305 49.9885 133.605 51.151 133.017 52.3869C133.473 51.1085 134.047 49.8361 134.861 48.7174C135.684 47.6071 136.622 46.5562 137.718 45.6517C138.761 44.7752 139.899 44.0085 141.113 43.3305C141.933 41.7498 142.935 40.2495 144.114 38.8452C143.25 38.8078 142.391 38.7957 141.523 38.8271C139.015 38.9581 136.526 39.4501 134.266 40.5158C136.367 39.1955 138.842 38.3986 141.393 37.9939C142.643 37.8062 143.905 37.6873 145.186 37.6458C145.937 36.8499 146.753 36.1105 147.61 35.3824C146.717 35.2929 145.819 35.2358 144.919 35.246C143.563 35.2579 142.21 35.3779 140.893 35.6693C139.549 35.8919 138.272 36.3548 137.011 36.8361C138.196 36.231 139.439 35.6388 140.76 35.2645C142.066 34.8367 143.441 34.5581 144.832 34.4058C146.003 34.2713 147.201 34.2225 148.384 34.2678C147.188 33.509 145.943 32.6362 144.68 31.637C144.302 31.6346 143.939 31.6519 143.583 31.6748C141.992 31.8125 140.438 32.1384 138.955 32.6865C140.373 32.0062 141.92 31.5299 143.519 31.2575C143.714 31.2285 143.909 31.2023 144.113 31.1818C142.766 30.0672 141.401 28.8065 140.051 27.38C135.021 32.1142 130.325 38.7819 129.832 47.395C129.832 47.395 130.409 42.0352 136.926 42.0946C136.926 42.0946 127.34 45.8868 129.928 67.0861C131.399 79.0529 124.971 79.4052 124.172 79.4073C125.174 79.5294 135.231 80.5337 136.332 71.9911C136.332 71.9911 137.018 81.8503 131.681 84.7703C127.951 86.8139 126.376 84.0848 126.376 84.0848C126.376 84.0848 120.842 85.6784 119.673 95.7307C118.905 102.295 121.796 103.488 121.306 109.181C120.946 113.419 116.372 112.366 115.318 116.025C114.242 119.774 117.052 121.702 114.911 127.158C114.911 127.158 118 123.857 118.035 119.333C118.058 114.818 123.835 117.919 127.877 113.491C132.951 107.961 128.398 101.794 134.194 99.4535C134.194 99.4535 142.589 100.371 148.972 94.5219C154.73 89.218 153.83 84.2898 153.783 84.0017C153.972 84.2016 156.388 87.0664 152.912 93.9986C152.911 93.9972 163.322 88.9375 161.705 81.4172Z" fill="#9747FF"/>
<path d="M173.522 26.8918C170.769 30.4058 170.888 36.0076 171.317 39.5413C174.047 38.8167 176.431 39.4523 176.431 39.4523C175.753 32.7478 177.212 27.5617 179.121 23.7997C178.436 23.9103 177.793 24.0743 177.191 24.2904L177.169 24.369C177.136 24.3563 177.097 24.3477 177.065 24.335C175.628 24.879 174.438 25.7256 173.522 26.8918Z" fill="#9747FF"/>
<path d="M161.69 37.5717C159.601 45.3869 163.39 53.9073 163.39 53.9073C163.547 44.8524 166.897 41.2684 170.162 39.93C170.033 38.9409 169.926 37.786 169.897 36.5387C169.351 36.7465 168.788 37.0343 168.288 37.3617C167.516 37.8667 166.81 38.4913 166.179 39.2003C165.577 39.9291 165.02 40.717 164.589 41.5853C164.136 42.4437 163.804 43.3642 163.509 44.3045C163.671 43.3344 163.87 42.3601 164.208 41.4199C164.524 40.4699 164.981 39.5679 165.514 38.6999C166.076 37.8502 166.745 37.057 167.529 36.3694C168.241 35.7617 168.977 35.2426 169.91 34.8391C169.925 34.4431 169.945 34.0456 169.982 33.6426C169.897 33.6578 169.81 33.6717 169.725 33.6911C169.359 33.773 169.001 33.8858 168.65 34.031C167.949 34.3213 167.284 34.7353 166.675 35.2379C166.08 35.756 165.52 36.3416 165.036 36.9949C164.543 37.6425 164.124 38.3521 163.728 39.08C163.997 38.2984 164.293 37.5182 164.683 36.7734C165.064 36.023 165.538 35.3149 166.086 34.6492C166.65 33.9976 167.312 33.4038 168.069 32.9282C168.447 32.6905 168.85 32.4822 169.269 32.3106C169.478 32.2227 169.692 32.1474 169.904 32.0763L170.204 31.9788C170.496 30.2898 171.02 28.631 171.898 27.1754C171.686 27.1706 171.471 27.1658 171.262 27.1695C170.674 27.1848 170.082 27.2338 169.492 27.3305C168.313 27.51 167.145 27.858 166.024 28.3565C167.001 27.6189 168.094 26.9939 169.267 26.5307C169.852 26.2921 170.458 26.0971 171.077 25.9372C171.709 25.7787 172.307 25.6511 173.027 25.5954L173.025 25.6853C173.215 25.4723 173.398 25.2467 173.607 25.0548C174.109 24.5926 174.664 24.1952 175.263 23.8555C175.225 23.8483 175.186 23.837 175.146 23.8313C174.439 23.71 173.717 23.6519 172.991 23.6626C172.265 23.6649 171.539 23.7655 170.826 23.9378C170.103 24.0946 169.425 24.4032 168.752 24.7413C169.345 24.2892 169.976 23.8442 170.686 23.5455C171.385 23.2299 172.128 22.9819 172.893 22.8365C173.658 22.6826 174.441 22.599 175.231 22.5884C176.032 22.5849 176.791 22.6235 177.644 22.7845L177.605 22.9108C178.297 22.723 179.036 22.5971 179.813 22.5247C180.065 22.0928 180.321 21.6848 180.577 21.2964C179.868 21.0304 179.145 20.7981 178.399 20.6431C177.387 20.4156 176.348 20.3679 175.306 20.4242C174.258 20.4691 173.242 20.7642 172.241 21.1253C173.18 20.6404 174.177 20.2006 175.247 20.0125C176.308 19.813 177.412 19.7204 178.505 19.8189C179.437 19.8902 180.361 20.064 181.272 20.2967C183.31 17.5267 185.193 16.1791 185.193 16.1791C167.817 13.2886 161.655 32.6724 161.655 32.6724C165.019 29.2514 169.529 30.46 169.529 30.46C169.529 30.46 163.779 29.7565 161.69 37.5717Z" fill="#9747FF"/>
<path d="M175.221 -23.2896C173.368 -23.2116 171.654 -21.917 171.057 -20.1488C170.032 -17.112 172.008 -13.7905 173.833 -12.5594C177.276 -10.2369 184.44 -9.18133 190.088 -15.8184C195.825 -22.5607 193.178 -31.3071 188.009 -36.9855C181.342 -44.3112 169.473 -48.1113 157.994 -40.085C150.281 -34.6965 145.789 -27.8498 144.644 -19.7413C143.046 -8.4485 148.333 1.67435 151.35 5.45086L151.728 5.92381C154.651 9.59473 159.8 16.047 167.901 19.4044C171.011 16.5614 173.021 15.9628 173.021 15.9628C161.307 13.1464 144.212 -8.15606 151.72 -24.9954C158.366 -39.9057 172.896 -40.5975 178.403 -37.6655C185.239 -34.0263 191.373 -25.9168 187.442 -19.49C183.031 -12.2794 175.05 -15.4159 174.547 -19.3937C174.244 -21.778 175.523 -22.7073 176.596 -23.0767C176.082 -23.2634 175.588 -23.3055 175.221 -23.2896Z" fill="#9747FF"/>
<path d="M133.997 -40.8779C115.181 -13.8208 131.804 0.199015 131.804 0.199015C127.175 -2.14068 125.634 -5.28402 125.634 -5.28402C129.611 25.6513 156.463 37.1967 158.74 37.339C158.74 37.339 158.559 36.0547 158.95 33.9376C158.389 33.6145 157.826 33.2984 157.272 32.9598C153.693 30.7844 150.333 28.2599 147.22 25.4748C145.622 24.1263 144.21 22.5817 142.734 21.1086C141.398 19.5038 139.944 18.0027 138.763 16.2803C136.185 12.9994 134.205 9.31273 132.362 5.60675C134.336 9.25128 136.436 12.8442 139.112 16.0074C140.341 17.6709 141.838 19.1117 143.211 20.6478C144.725 22.0522 146.169 23.5266 147.796 24.8007C150.962 27.4371 154.353 29.8002 157.941 31.8084C158.377 32.054 158.825 32.2827 159.266 32.5198C159.489 31.7002 159.803 30.7922 160.219 29.8185C159.476 29.3418 158.734 28.8637 158.004 28.3688C156.109 27.0869 154.261 25.7322 152.466 24.3074C148.885 21.4494 145.514 18.2914 142.604 14.7174C136.855 7.57808 132.545 -0.888971 131.129 -10.0183C130.464 -14.5667 130.523 -19.2537 131.559 -23.7372C132.062 -25.9776 132.748 -28.1796 133.674 -30.277C134.569 -32.3857 135.65 -34.4138 136.898 -36.3264C139.378 -40.1669 142.369 -43.6508 145.793 -46.6658C149.198 -49.6935 153.117 -52.1959 157.406 -53.804C161.679 -55.457 166.331 -56.081 170.895 -55.7781C175.469 -55.4766 179.949 -54.1851 184.061 -52.1937C188.172 -50.1953 191.952 -47.5054 195.127 -44.2102C198.297 -40.9136 200.708 -36.8662 201.972 -32.4707C203.238 -28.0865 203.311 -23.3289 201.922 -18.9826C200.567 -14.6194 197.732 -10.8247 194.213 -7.99254C190.732 -5.14486 186.51 -2.94806 181.944 -2.65539C177.425 -2.34434 172.735 -4.12095 169.73 -7.54067C172.764 -4.14475 177.452 -2.41871 181.937 -2.76637C186.467 -3.09425 190.639 -5.30803 194.072 -8.16427C197.542 -11.0036 200.306 -14.7788 201.605 -19.0832C202.938 -23.3735 202.826 -28.0468 201.546 -32.3469C200.268 -36.6595 197.868 -40.6114 194.729 -43.8236C191.58 -47.04 187.834 -49.6597 183.778 -51.5891C179.722 -53.5129 175.319 -54.741 170.851 -54.9987C166.393 -55.2563 161.876 -54.6124 157.73 -52.9702C153.57 -51.3702 149.77 -48.9026 146.465 -45.9126C143.139 -42.9394 140.227 -39.4835 137.844 -35.7227C136.641 -33.8466 135.607 -31.866 134.755 -29.8148C133.874 -27.7734 133.227 -25.636 132.761 -23.4657C131.795 -19.1253 131.776 -14.6054 132.455 -10.2115C133.891 -1.39808 138.159 6.83992 143.811 13.736C146.66 17.1792 149.973 20.2345 153.502 23.0039C155.27 24.3851 157.094 25.699 158.966 26.9442C159.629 27.3856 160.303 27.8102 160.976 28.2362C161.459 27.3048 162.038 26.3288 162.745 25.3123C160.188 23.6804 157.761 21.8972 155.417 19.9765C152.12 17.2428 149.044 14.2289 146.328 10.8984C140.895 4.29786 137.004 -3.90823 136.616 -12.5784C136.372 -16.8897 137.087 -21.1957 138.294 -25.284C138.872 -27.3458 139.701 -29.3269 140.592 -31.2713C141.574 -33.1719 142.606 -35.0569 143.909 -36.7628C148.938 -43.719 156.773 -48.4949 165.209 -49.9178C169.421 -50.6398 173.783 -50.5987 177.958 -49.603C182.11 -48.6313 186.16 -46.6878 189.183 -43.6178C192.293 -40.695 194.911 -37.2117 196.65 -33.2953C198.336 -29.3819 199.028 -24.9387 198.042 -20.7557C197.063 -16.5516 194.186 -13.0435 190.762 -10.6002C189.889 -9.99994 189.046 -9.34904 188.078 -8.90496C187.127 -8.43835 186.231 -7.86626 185.236 -7.48826C183.275 -6.68162 181.148 -6.21953 179.016 -6.30947C174.745 -6.41351 170.61 -8.73083 168.276 -12.2948C167.115 -14.0607 166.365 -16.1724 166.515 -18.2999C166.625 -20.4346 167.823 -22.4077 169.556 -23.6082C167.833 -22.3922 166.659 -20.4148 166.57 -18.2955C166.44 -16.182 167.201 -14.0956 168.367 -12.355C170.712 -8.84152 174.821 -6.59591 179.019 -6.52998C181.118 -6.45698 183.204 -6.93182 185.127 -7.74277C186.103 -8.12363 186.99 -8.70138 187.927 -9.17083C188.881 -9.61776 189.707 -10.2687 190.563 -10.869C193.921 -13.3111 196.691 -16.766 197.606 -20.8608C198.528 -24.9372 197.821 -29.2554 196.137 -33.0719C194.402 -36.8886 191.803 -40.2862 188.726 -43.1274C185.75 -46.0976 181.839 -47.9241 177.783 -48.8422C173.715 -49.7758 169.459 -49.7787 165.365 -49.0395C157.157 -47.5781 149.611 -42.8731 144.807 -36.1031C143.559 -34.4448 142.578 -32.6074 141.642 -30.7586C140.796 -28.8647 140.008 -26.9383 139.464 -24.9298C138.323 -20.9325 137.673 -16.7795 137.944 -12.6395C138.392 -4.32171 142.186 3.53719 147.524 9.91555C152.115 15.4056 157.711 20.1245 163.783 23.9021C163.822 23.8516 163.855 23.8025 163.897 23.7521C164.823 22.5859 165.7 21.5994 166.525 20.749C158.417 17.157 153.285 10.7371 150.337 7.03519L149.962 6.56506C146.777 2.58163 141.199 -8.09539 142.88 -19.992C143.866 -26.9575 147.151 -33.0307 152.673 -38.1048C153.977 -39.3051 155.411 -40.4516 156.966 -41.5389C169.331 -50.1836 182.127 -46.0763 189.321 -38.1732C197.225 -29.4902 196.083 -20.1035 191.444 -14.6534C185.05 -7.14463 176.813 -8.39692 172.84 -11.079C170.204 -12.8572 168.126 -17.0484 169.366 -20.7195C170.194 -23.1669 172.564 -24.9514 175.131 -25.0626C175.932 -25.097 176.687 -24.9559 177.374 -24.6718C174.077 -30.6107 162.788 -26.7429 162.582 -15.5068C162.392 -5.24539 173.323 -2.70356 173.323 -2.70356C168.993 -2.53106 166.804 -3.80662 166.804 -3.80662C166.804 -3.80662 175.845 5.28259 189.784 0.42181C197.813 -2.37869 203.282 -9.12443 205.572 -14.4951C210.75 -26.6423 204.094 -33.3317 204.094 -33.3317C208.316 -30.3568 209.905 -26.9381 209.905 -26.9381C209.905 -26.9381 212.216 -35.5041 197.488 -49.5231C181.867 -64.39 174.389 -58.2212 173.191 -57.0179C177.047 -61.2284 179.236 -61.3139 179.236 -61.3139C179.236 -61.3139 169.713 -62.5134 158.63 -59.1676C150.655 -56.7645 141.19 -51.2233 133.997 -40.8779Z" fill="#9747FF"/>
<path d="M237.436 -41.002C237.972 -40.5047 238.514 -40.0131 239.04 -39.499C240.711 -37.8442 242.316 -36.1081 243.673 -34.1985C242.103 -35.9345 240.326 -37.4477 238.495 -38.8754C238.024 -39.2377 237.537 -39.5817 237.055 -39.9341C236.673 -38.966 236.288 -38.0765 235.905 -37.2544C236.732 -36.6791 237.547 -36.0828 238.334 -35.4557C239.362 -34.6383 240.353 -33.7761 241.264 -32.8312C242.174 -31.8905 243.028 -30.8853 243.682 -29.7599C242.913 -30.8098 241.969 -31.7028 240.983 -32.5271C239.994 -33.3528 238.939 -34.0916 237.853 -34.78C237.054 -35.2877 236.233 -35.7633 235.404 -36.2205C234.873 -35.1573 234.354 -34.2246 233.857 -33.4183C234.961 -32.6709 236.011 -31.8591 237.003 -30.987C238.027 -30.0531 239.027 -29.0953 239.923 -28.0479C240.841 -27.0229 241.67 -25.9251 242.468 -24.8134C241.561 -25.8383 240.632 -26.8395 239.627 -27.7579C238.641 -28.696 237.57 -29.5346 236.487 -30.3381C235.43 -31.0923 234.33 -31.7779 233.196 -32.3877C232.652 -31.5787 232.153 -30.9226 231.724 -30.4055C231.888 -30.325 232.057 -30.2487 232.217 -30.1668C233.584 -29.4244 234.793 -28.4984 235.965 -27.5486C237.113 -26.5707 238.213 -25.5495 239.258 -24.4792C240.313 -23.4187 241.305 -22.3009 242.301 -21.1928C241.205 -22.207 240.12 -23.2226 238.976 -24.1752C237.845 -25.1389 236.669 -26.0424 235.463 -26.8897C234.242 -27.7076 232.993 -28.4863 231.678 -29.0474C231.384 -29.1647 231.087 -29.2765 230.792 -29.3784C230.373 -28.9567 230.125 -28.7678 230.125 -28.7678C230.294 -27.7448 230.426 -26.7388 230.531 -25.7454L230.704 -25.6481C230.995 -25.4717 231.279 -25.2996 231.555 -25.1163C232.111 -24.7538 232.652 -24.383 233.184 -23.9939C234.248 -23.2214 235.281 -22.4124 236.271 -21.5544C238.246 -19.8397 240.094 -17.9443 241.54 -15.8097C239.866 -17.7861 237.871 -19.4306 235.78 -20.8857C234.733 -21.6132 233.652 -22.2847 232.558 -22.9112C232.012 -23.2273 231.458 -23.5237 230.902 -23.8047C230.829 -23.8414 230.756 -23.8753 230.683 -23.9092C230.746 -23.0143 230.786 -22.1336 230.803 -21.2627C231.693 -20.8881 232.513 -20.4519 233.315 -19.9526C234.516 -19.1993 235.622 -18.3255 236.597 -17.3257C237.576 -16.3301 238.459 -15.2448 239.169 -14.0363C239.921 -12.8615 240.462 -11.5468 240.949 -10.228C240.307 -11.4615 239.621 -12.6601 238.746 -13.6976C237.912 -14.7673 236.926 -15.6913 235.87 -16.5116C234.817 -17.3374 233.66 -18.0245 232.439 -18.5812C231.91 -18.8242 231.355 -19.0434 230.794 -19.2345C230.774 -18.3834 230.732 -17.5449 230.668 -16.7178C230.944 -16.4699 231.157 -16.2797 231.16 -16.2741L231.274 -16.1206L231.519 -15.7969L232.01 -15.1383C232.334 -14.6964 232.653 -14.2517 232.959 -13.7972C233.572 -12.8896 234.159 -11.9666 234.68 -11.0059C235.721 -9.10136 236.605 -7.04691 236.803 -4.93809C236.32 -7.01536 235.209 -8.86815 233.969 -10.5766C233.348 -11.435 232.668 -12.2501 231.968 -13.0456C231.618 -13.4426 231.258 -13.8312 230.893 -14.2156L230.466 -14.6564C230.33 -13.5373 230.157 -12.4436 229.948 -11.3753C230.396 -10.8403 230.826 -10.3012 231.245 -9.7453C231.973 -8.76999 232.65 -7.76532 233.271 -6.73832C234.507 -4.68715 235.486 -2.50885 235.974 -0.345896C235.184 -2.48858 233.964 -4.49336 232.54 -6.32872C231.826 -7.245 231.068 -8.1291 230.269 -8.96975C230.047 -9.2035 229.813 -9.43167 229.582 -9.66264C229.299 -8.44983 228.984 -7.26238 228.619 -6.11159C229.739 -4.59167 230.765 -3.04389 231.699 -1.42895C232.303 -0.393568 232.844 0.679566 233.284 1.77491C233.711 2.86319 234.076 4.01031 234.02 5.0945C233.92 3.98883 233.422 2.9158 232.877 1.90305C232.318 0.887454 231.673 -0.0876341 230.967 -1.02637C230.068 -2.23389 229.089 -3.4037 228.077 -4.52725C227.807 -3.76949 227.525 -3.02299 227.225 -2.29201C227.646 -1.73888 228.041 -1.18162 228.416 -0.601934C229.073 0.41673 229.651 1.47311 230.142 2.54752C231.147 4.68937 231.761 6.9257 232.005 9.08941C231.459 6.91788 230.568 4.79739 229.352 2.85864C228.757 1.88509 228.09 0.952075 227.363 0.0736824C227.117 -0.226151 226.849 -0.519015 226.584 -0.811874C226.271 -0.110414 225.946 0.578382 225.609 1.25591C226.079 2.05355 226.525 2.84973 226.946 3.6655C227.523 4.79211 228.061 5.93547 228.52 7.09968C229.433 9.40844 230.152 11.8698 229.965 14.1714C229.845 11.8184 228.86 9.5221 227.715 7.37145C227.141 6.28979 226.493 5.23885 225.812 4.21029C225.492 3.73048 225.161 3.25063 224.822 2.77779C224.508 3.36548 224.185 3.9419 223.856 4.50989C224.367 5.34838 224.831 6.18534 225.244 7.05447C225.82 8.28923 226.293 9.5546 226.649 10.8267C227.02 12.0974 227.213 13.386 227.285 14.6404C227.38 15.9034 227.206 17.1137 226.979 18.2733C227.057 17.0627 227.075 15.8422 226.834 14.6069C226.616 13.3802 226.286 12.1587 225.794 10.9747C225.317 9.78939 224.738 8.63609 224.07 7.53031C223.742 6.99008 223.385 6.44556 223.017 5.92348C222.717 6.41289 222.412 6.89806 222.103 7.37339C222.026 7.49258 221.945 7.60192 221.868 7.7183L221.897 7.76473C222.038 8.05726 222.178 8.34838 222.304 8.64227C222.566 9.22587 222.797 9.8136 223.014 10.4027C223.445 11.5823 223.796 12.7729 224.068 13.9647C224.351 15.1552 224.507 16.3509 224.595 17.5281C224.688 18.7082 224.616 19.864 224.493 20.9874C224.467 19.8271 224.386 18.6695 224.147 17.5087C223.915 16.3521 223.617 15.2024 223.203 14.0748C222.8 12.9486 222.327 11.8392 221.784 10.7618C221.513 10.2245 221.228 9.69005 220.922 9.17375L220.898 9.13295C220.488 9.71196 220.071 10.2671 219.652 10.8095C219.657 10.8531 219.665 10.9009 219.67 10.9444C219.743 11.5697 219.752 12.175 219.777 12.7833C219.782 13.987 219.743 15.178 219.605 16.3351C219.349 18.6562 218.865 20.8952 218.155 23.0184C217.408 25.1205 216.573 27.1774 215.451 29.0411C214.953 30.0146 214.297 30.8795 213.72 31.7909C213.103 32.6756 212.412 33.5025 211.762 34.3575C212.341 33.4461 212.961 32.5671 213.504 31.6331C214.005 30.6722 214.586 29.765 215.002 28.7548C215.964 26.8148 216.629 24.7083 217.202 22.5861C217.735 20.4441 218.043 18.2158 218.127 15.9519C218.176 14.9 218.134 13.8324 218.063 12.7675C217.429 13.506 216.789 14.1996 216.147 14.8581C216.166 15.4031 216.15 15.934 216.14 16.4677C216.072 17.6684 215.964 18.855 215.757 20.0006C215.362 22.3017 214.746 24.5067 213.912 26.5832C213.041 28.6372 212.084 30.639 210.852 32.4336C210.299 33.3761 209.592 34.1987 208.961 35.0749C208.293 35.9229 207.55 36.7047 206.853 37.5203C207.486 36.6455 208.158 35.8045 208.754 34.9072C209.313 33.9788 209.944 33.1082 210.42 32.1249C211.497 30.2456 212.285 28.1844 212.985 26.1018C213.646 23.9953 214.084 21.7913 214.304 19.5375C214.41 18.5419 214.434 17.5293 214.428 16.5151C213.82 17.0669 213.213 17.5808 212.609 18.0582C212.616 18.2801 212.626 18.5035 212.618 18.7141C212.618 19.342 212.56 19.9444 212.516 20.551C212.385 21.7474 212.212 22.9254 211.943 24.0596C211.425 26.335 210.69 28.5032 209.746 30.5317C208.766 32.5349 207.703 34.4816 206.376 36.2057C205.772 37.1171 205.021 37.8989 204.345 38.7412C203.634 39.5512 202.85 40.2921 202.108 41.0683C202.787 40.2288 203.504 39.4272 204.148 38.5609C204.755 37.6636 205.435 36.8283 205.964 35.8717C207.139 34.0545 208.038 32.0371 208.849 29.9956C209.623 27.9287 210.179 25.7502 210.52 23.5136C210.699 22.3989 210.783 21.253 210.831 20.1097C210.83 19.8653 210.821 19.6237 210.821 19.3793C210.326 19.7137 209.836 20.0228 209.351 20.3053C209.345 20.5202 209.342 20.7393 209.322 20.9457C209.286 21.5734 209.193 22.1701 209.115 22.7725C208.913 23.9574 208.671 25.1226 208.337 26.2398C207.686 28.4798 206.826 30.6012 205.764 32.5704C204.668 34.5115 203.495 36.3947 202.068 38.0385C201.411 38.9118 200.617 39.6499 199.891 40.4514C199.133 41.2177 198.309 41.9122 197.522 42.6433C198.25 41.8446 199.011 41.0868 199.704 40.2585C200.365 39.3978 201.09 38.6048 201.673 37.6807C202.954 35.9354 203.968 33.9745 204.894 31.9838C205.787 29.965 206.471 27.8248 206.941 25.611C207.185 24.5077 207.337 23.3703 207.449 22.2329C207.468 21.9071 207.477 21.5827 207.493 21.2569C207.122 21.4244 206.753 21.585 206.394 21.7189C206.097 22.6858 205.773 23.6274 205.393 24.5563C204.852 25.8808 204.227 27.1671 203.528 28.4097C202.838 29.6552 202.068 30.8554 201.216 31.9895C200.387 33.1391 199.431 34.1885 198.457 35.2015C199.313 34.0843 200.14 32.9502 200.826 31.7342C201.535 30.5352 202.154 29.2882 202.686 28.01C203.226 26.7375 203.686 25.4352 204.06 24.1145C204.236 23.5054 204.391 22.8822 204.53 22.2617C204.299 22.313 204.065 22.3658 203.839 22.4003C203.803 22.4789 203.772 22.5575 203.735 22.6374C203.105 23.9827 202.371 25.2716 201.559 26.5027C199.954 28.9789 198.028 31.2225 195.893 33.2198C194.817 34.2367 193.743 35.1328 192.819 36.2259C191.904 37.3106 191.046 38.4643 190.371 39.728C189.005 42.2372 188.07 45.0341 187.851 47.9255C187.921 45.0225 188.713 42.1522 189.975 39.5205C190.597 38.1948 191.414 36.9666 192.303 35.7989C193.19 34.6299 194.291 33.6046 195.265 32.5833C197.25 30.5252 199.002 28.2516 200.423 25.7946C201.049 24.7259 201.602 23.6178 202.09 22.4856C201.969 22.4796 201.842 22.4849 201.724 22.4734C198.509 25.1251 194.94 28.342 193.206 30.0481C190.481 32.7447 188.019 35.8437 186.802 39.4686C185.74 43.15 185.593 47.1105 185.807 51.0144C185.844 51.9949 185.823 53.002 185.627 53.9832C185.457 54.9814 184.914 55.8705 184.298 56.633C182.981 58.1226 181.281 59.1546 179.602 60.146C181.244 59.0983 182.906 58.0002 184.137 56.5019C184.709 55.7351 185.196 54.8796 185.322 53.922C185.474 52.9757 185.463 52.0065 185.393 51.0316C185.049 47.1287 185.028 43.127 186.008 39.2263C187.162 35.3457 189.614 32.0514 192.315 29.1763C194.179 27.2107 197.143 24.3504 199.896 22.0148C199.748 21.9512 199.62 21.8736 199.485 21.8002C197.038 23.2166 193.944 25.429 192.113 27.1813C189.963 29.2207 188.117 31.5881 186.656 34.1785C185.195 36.7633 184.059 39.575 183.498 42.5246C183.112 43.9815 183.03 45.4884 182.871 46.9881C182.756 47.7364 182.833 48.4937 182.825 49.248L182.852 51.5164L182.721 49.2477C182.695 48.4905 182.584 47.7318 182.665 46.9749C182.753 45.461 182.766 43.9329 183.089 42.4406C183.522 39.4247 184.543 36.5003 185.923 33.7762C187.302 31.0452 189.096 28.5104 191.227 26.2926C193.16 24.278 195.728 22.2987 198.245 20.7646C198.093 20.5647 197.966 20.3509 197.858 20.1259C195.987 20.8878 193.63 22.0979 192.218 23.1378C190.472 24.4282 188.875 25.9353 187.458 27.6086C186.088 29.3157 184.802 31.12 183.805 33.095C183.236 34.0472 182.866 35.0983 182.386 36.0971C181.967 37.1241 181.624 38.1822 181.238 39.2276C181.558 38.1638 181.835 37.0816 182.192 36.0235C182.612 34.9923 182.919 33.9073 183.433 32.9114C184.318 30.8518 185.507 28.9335 186.806 27.0914C188.152 25.283 189.707 23.6185 191.449 22.1553C192.982 20.8868 195.4 19.587 197.482 18.6739C197.468 18.525 197.449 18.3747 197.446 18.2202C197.446 18.1331 197.455 18.0586 197.461 17.9772C196.129 18.3459 194.563 18.9569 193.422 19.4076C191.967 19.9866 190.566 20.7034 189.244 21.5525C187.909 22.3861 186.695 23.4082 185.595 24.5444C184.461 25.6595 183.595 27.007 182.78 28.3855C183.468 26.9476 184.227 25.5043 185.281 24.2697C186.299 23.0153 187.458 21.854 188.76 20.8728C190.051 19.8776 191.442 19.0048 192.906 18.2699C194.145 17.6566 195.722 16.9444 197.729 16.8978C198.528 15.3858 200.755 15.6206 200.755 15.6206C200.755 15.6206 196.267 12.0509 187.758 16.5567C178.428 21.4957 178.169 34.8526 178.169 34.8526C178.169 34.8526 178.593 31.8255 184.046 30.3637C184.046 30.3637 176.693 33.5986 178.346 45.0125C179.998 56.4263 181.779 54.7891 177.733 57.0945C173.687 59.3999 172.242 66.7912 172.496 71.0015C172.496 71.0015 175.4 63.8865 178.05 63.2699C180.7 62.6533 186.892 61.1879 189.275 55.5801C192.515 47.9548 188.015 42.1882 197.563 37.0503C197.563 37.0503 189.892 42.9194 195.78 51.9427C195.78 51.9427 195.282 47.0295 199.783 44.7112C204.282 42.3958 223.023 31.671 221.469 18.739C221.469 18.739 223.469 23.1154 221.615 27.3608C221.615 27.3608 232.929 16.244 236.811 3.88694C240.692 -8.47013 236.05 -13.5277 236.05 -13.5277C236.05 -13.5277 240.694 -8.47154 239.945 -3.60523C239.945 -3.60523 254.256 -34.1198 237.559 -55.4647C237.559 -55.4619 240.129 -48.9083 237.436 -41.002Z" fill="#9747FF"/>
</g>
<defs>
<clipPath id="clip0_826_239">
<rect x="174" y="72" width="174" height="72" rx="36" transform="rotate(-180 174 72)" fill="white"/>
</clipPath>
</defs>
</svg>
