<svg width="174" height="72" viewBox="0 0 174 72" fill="none" xmlns="http://www.w3.org/2000/svg">
<g clip-path="url(#clip0_826_225)">
<path d="M32.267 46.2342C34.7153 52.5104 33.8985 59.1633 29.9544 64.9929C27.0891 69.2031 26.5614 73.2722 26.4993 75.4888C22.1536 72.8161 19.1445 70.3254 17.5141 68.1034C14.354 63.7801 15.1687 60.5923 16.3789 58.6789C16.703 59.8761 17.6228 61.5592 20.4802 61.3774C25.1147 61.0856 27.834 53.6706 24.0779 46.3542C22.8412 43.9711 19.4032 41.1388 15.475 38.892C16.74 38.5572 19.782 37.6052 23.521 35.5109C27.6445 38.2909 30.5398 41.8171 32.267 46.2342Z" fill="#9747FF"/>
<path d="M12.2947 81.4172C12.929 78.4519 13.8882 79.5856 13.4911 74.651C13.4807 74.8799 13.4129 77.1218 11.4081 78.359C8.85458 79.9403 9.62918 82.3317 9.74214 82.6362C9.23515 82.0841 1.90616 73.5693 7.39478 62.6509C9.57645 58.2867 13.2429 57.5929 15.0816 57.5361C14.4895 58.3776 13.9388 59.4437 13.6812 60.7324C13.6357 60.946 13.6168 61.1666 13.5896 61.3788C13.3843 61.4692 13.1818 61.5596 12.9849 61.6585C11.9932 62.185 11.1486 62.9008 10.4891 63.7144C9.83656 64.535 9.29065 65.4171 8.94121 66.3577C8.72654 66.8021 8.61709 67.2898 8.4459 67.7552C8.33369 68.226 8.23128 68.7039 8.11907 69.1747C8.30003 68.7332 8.47123 68.265 8.66064 67.815C8.89354 67.386 9.06333 66.9192 9.33125 66.5224C9.81246 65.6798 10.4437 64.9196 11.1407 64.2647C11.8293 63.6181 12.6453 63.1131 13.524 62.7891C13.5656 63.5349 13.6998 64.2831 13.9268 65.048C13.703 65.2158 13.4694 65.3765 13.2624 65.5751C12.0659 66.5699 11.165 67.8042 10.4958 69.115C9.83355 70.4329 9.49976 71.8285 9.23905 73.2099C9.14307 73.9139 9.09766 74.6177 9.03404 75.3033L9.02993 77.3807L9.24611 75.3125C9.38557 74.6295 9.50818 73.9466 9.68272 73.279C10.0739 71.9632 10.5423 70.6515 11.2898 69.4865C12.0275 68.3314 12.9699 67.3049 14.0872 66.5266C14.1927 66.4604 14.3137 66.3926 14.4262 66.3165C14.7236 66.9857 15.08 67.6575 15.5291 68.3319C15.3303 68.6316 15.1567 68.9397 14.9929 69.2548C14.2643 70.6866 13.8348 72.1892 13.6482 73.6842C14.124 72.2362 14.8313 70.8648 15.7447 69.6713C15.8687 69.5109 16.0109 69.3658 16.135 69.2054C16.4009 69.5474 16.6683 69.8739 16.9778 70.2201C16.5552 71.2086 16.2338 72.1913 15.967 73.2201C15.5368 74.9587 15.2933 76.7179 15.2662 78.4625C15.2742 80.2196 15.3749 81.9624 15.7567 83.6511C15.8893 84.5076 16.1722 85.337 16.3947 86.1623C16.651 86.9847 16.9747 87.7872 17.2563 88.5983C17.0492 87.7716 16.793 86.9492 16.6098 86.1125C16.4772 85.2561 16.2547 84.4308 16.2049 83.5839C15.9748 81.9005 16.0188 80.1727 16.158 78.4981C16.3226 76.8121 16.7078 75.127 17.2556 73.5229C17.4949 72.8158 17.7917 72.0958 18.1236 71.4081C18.3744 71.642 18.6098 71.8773 18.8872 72.1182C18.8687 72.2292 18.808 72.3347 18.7825 72.4359C18.5366 73.5307 18.4241 74.6322 18.4128 75.711C18.4169 76.7883 18.4885 77.8598 18.636 78.9171C18.7807 79.9575 18.9943 81.0104 19.2304 82.021C19.1348 80.9763 19.073 79.9286 19.0786 78.878C19.0842 77.8273 19.1474 76.7779 19.2976 75.7424C19.4461 74.8149 19.6634 73.9168 19.9762 73.0353C20.2789 73.2817 20.5732 73.5225 20.9083 73.7674C20.9321 75.3798 21.1049 76.9497 21.4111 78.5262C21.9366 81.1135 22.8977 83.635 24.2766 85.8899C24.6502 86.4353 24.9435 87.0525 25.3804 87.543L26.6447 89.0833C27.6156 90.0063 28.5063 91.0012 29.6505 91.7426C31.7571 93.4155 34.2853 94.4791 36.797 95.4331C34.3348 94.3483 31.8982 93.1623 29.9308 91.4202C28.8682 90.6393 28.0507 89.6133 27.157 88.6942L26.0417 87.1255C25.6287 86.6251 25.3873 86.0204 25.0643 85.4721C23.8552 83.2378 23.0935 80.7775 22.7321 78.2896C22.5735 77.1733 22.4978 76.0527 22.4812 74.9178C22.9158 75.2313 23.3897 75.5503 23.8734 75.8594C24.2802 77.6632 24.8275 79.433 25.5575 81.1545C26.9396 84.328 28.9696 87.3691 31.9362 89.4428C33.3844 90.4657 35.1255 91.207 36.7631 91.7939C38.3964 92.4245 40.0239 93.114 41.4991 94.0343C42.2353 94.486 42.9025 95.018 43.4992 95.6316C44.0537 96.2566 44.5069 96.9802 44.7956 97.7674C45.3475 99.3671 45.371 101.092 45.4943 102.79C45.4385 101.086 45.5091 99.3653 44.9938 97.7036C44.7446 96.8714 44.314 96.1028 43.7554 95.4287C43.1644 94.7729 42.503 94.1819 41.764 93.6965C40.299 92.6736 38.6744 91.9251 37.0372 91.2117L35.8081 90.6953L34.6495 90.114C33.8455 89.7945 33.1938 89.2443 32.4886 88.7728C29.7916 86.7124 27.996 83.7647 26.8046 80.6778C26.3724 79.4991 26.03 78.2864 25.7454 77.0441C26.1408 77.2931 26.5279 77.5337 26.9401 77.7826C27.7457 79.6331 28.7804 81.3861 30.0558 82.9657C30.7375 83.8586 31.557 84.65 32.3682 85.4498C33.2498 86.1681 34.1003 86.9229 35.0806 87.5088C36.01 88.1904 37.0608 88.6778 38.0721 89.2102C39.0834 89.7258 40.0977 90.1656 41.0683 90.7108C43.015 91.7731 44.8588 93.0113 46.2942 94.6073C47.7452 96.185 48.6162 98.2334 48.4307 100.374C48.3759 101.446 48.0599 102.496 47.8716 103.595C47.6833 104.677 47.5455 105.773 47.5693 106.881C47.5748 107.974 47.8093 109.076 48.3123 110.066C48.6616 110.748 49.1741 111.368 49.8118 111.859C49.2233 111.346 48.7347 110.717 48.4094 110.009C47.9569 109.032 47.7673 107.953 47.7786 106.874C47.7983 105.787 47.9796 104.714 48.1931 103.638C48.408 102.58 48.776 101.525 48.8759 100.4C48.987 99.2971 48.8692 98.1541 48.5111 97.0861C48.129 96.0281 47.5431 95.0619 46.8192 94.1972C45.3658 92.4762 43.4915 91.1314 41.5379 89.9862C39.5732 88.8158 37.4812 87.9575 35.7528 86.66C34.8302 86.0782 34.047 85.3204 33.2342 84.6118C32.5003 83.8328 31.7509 83.0693 31.1379 82.2057C29.9832 80.682 29.0705 78.9891 28.3561 77.2156L28.3385 76.9474C28.3204 76.9151 28.1104 75.0462 28.6723 72.3802C28.9974 73.7193 29.3957 75.0273 29.919 76.3027C30.6541 78.2348 31.7842 80.0213 33.0721 81.6612C33.7808 82.4347 34.4317 83.2546 35.284 83.8985C35.6919 84.2218 36.0715 84.5987 36.5118 84.8868L37.8565 85.7415C38.0865 85.8926 38.3052 86.0381 38.5408 86.1638L39.2619 86.4906L40.728 87.1511C41.6819 87.5868 42.6488 87.9368 43.5647 88.4189C45.3868 89.3566 47.0113 90.6262 48.3234 92.1298C50.9685 95.1862 51.918 99.434 51.1335 103.418C52.064 99.4645 51.2918 95.1039 48.6865 91.876C47.3915 90.2628 45.7518 88.8991 43.9075 87.8632C42.9959 87.3403 41.9941 86.9412 41.0641 86.4788L39.6809 85.797L38.9936 85.4505C38.7832 85.3303 38.5716 85.1777 38.3683 85.0336L37.1261 84.1885C36.7097 83.8905 36.375 83.5191 35.991 83.2027C35.2089 82.5699 34.6155 81.7709 33.9685 81.0198C32.8267 79.4103 31.8114 77.7107 31.19 75.8442C30.3881 73.6819 29.9095 71.4203 29.6965 69.1202C30.1009 68.1163 30.6542 67.0838 31.3579 66.0215C31.4868 67.2066 31.6578 68.3804 31.8977 69.5498C32.2445 71.2063 32.7135 72.8301 33.3077 74.4017C33.9018 75.9901 34.6844 77.4909 35.5711 78.9241C34.0157 75.9491 33.1676 72.6871 32.7802 69.4014C32.6034 67.7486 32.5081 66.0901 32.5153 64.4411C32.5156 64.3315 32.5088 64.2318 32.5189 64.1292C33.2711 62.7971 33.8773 61.4316 34.3417 60.0511C34.7847 60.8772 35.2038 61.7469 35.5076 62.6423C35.9385 63.8055 36.2542 64.9944 36.5375 66.2184C36.8124 67.4341 37.0128 68.6653 37.1977 69.9149C37.1631 68.6551 37.1032 67.3897 36.9787 66.1442C36.8346 64.8847 36.668 63.6336 36.3665 62.3942C36.0987 61.1518 35.689 59.9281 35.1457 58.7483C35.0746 58.5589 34.9599 58.3653 34.8719 58.1788C35.0808 57.2723 35.2321 56.3785 35.33 55.4541C35.5135 55.6769 35.7194 55.8885 35.8971 56.1197C37.0464 57.5761 37.979 59.1903 38.7245 60.8962C39.4026 62.6221 39.961 64.4171 40.2286 66.2732C40.4242 67.2011 40.4456 68.1323 40.5512 69.0773C40.5895 70.0253 40.5687 70.9679 40.59 71.9187C40.6516 70.9634 40.7398 70.0151 40.7774 69.0697C40.7392 68.1217 40.8008 67.1496 40.6712 66.2173C40.5442 64.3074 40.1222 62.4292 39.5624 60.6019C38.9352 58.7804 38.0859 57.0157 37.0003 55.378C36.5246 54.6798 36.0081 54.0112 35.4353 53.3708C35.4369 52.2513 35.3359 51.1223 35.1521 50.0174C35.2936 50.1252 35.4423 50.2231 35.5852 50.3295C36.7459 51.1972 37.7657 52.2423 38.6433 53.3988C39.4787 54.5666 40.2212 55.8414 40.7499 57.201C41.0642 57.8674 41.2294 58.5791 41.4762 59.2681C41.6752 59.9768 41.825 60.69 41.9902 61.4185C41.891 60.6856 41.8157 59.9428 41.6913 59.2183C41.526 58.5066 41.417 57.7498 41.1773 57.0679C40.7766 55.6166 40.1552 54.2403 39.403 52.9389C38.6185 51.6417 37.6441 50.4167 36.4966 49.3705C35.9318 48.865 35.353 48.3931 34.7122 47.9777C34.4994 47.1762 34.2529 46.3945 33.9474 45.6102C33.8776 45.4559 33.8176 45.3085 33.7491 45.1528C34.4196 45.4994 35.0774 45.8811 35.7111 46.3064C36.8398 47.0661 37.8683 47.9763 38.7857 48.9782C39.6946 49.9885 40.3952 51.151 40.9832 52.3869C40.5273 51.1085 39.9534 49.8361 39.1389 48.7174C38.316 47.6071 37.3777 46.5562 36.2817 45.6517C35.239 44.7752 34.1005 44.0085 32.8874 43.3305C32.0671 41.7498 31.0654 40.2495 29.8864 38.8452C30.7504 38.8078 31.6086 38.7957 32.4765 38.8271C34.9848 38.9581 37.4738 39.4501 39.7338 40.5158C37.6332 39.1955 35.1576 38.3986 32.6066 37.9939C31.357 37.8062 30.0946 37.6873 28.8137 37.6458C28.063 36.8499 27.2475 36.1105 26.3898 35.3824C27.2833 35.2929 28.181 35.2358 29.0813 35.246C30.4367 35.2579 31.7904 35.3779 33.1072 35.6693C34.4508 35.8919 35.7277 36.3548 36.9891 36.8361C35.8039 36.231 34.561 35.6388 33.2403 35.2645C31.9337 34.8367 30.5594 34.5581 29.1678 34.4058C27.9968 34.2713 26.7988 34.2225 25.616 34.2678C26.8119 33.509 28.0573 32.6362 29.3199 31.637C29.6977 31.6346 30.0614 31.6519 30.4167 31.6748C32.0078 31.8125 33.5618 32.1384 35.045 32.6865C33.6267 32.0062 32.0802 31.5299 30.4811 31.2575C30.2859 31.2285 30.0907 31.2023 29.8871 31.1818C31.2343 30.0672 32.5987 28.8065 33.9494 27.38C38.9793 32.1142 43.6754 38.7819 44.168 47.395C44.168 47.395 43.5909 42.0352 37.0735 42.0946C37.0735 42.0946 46.6596 45.8868 44.0722 67.0861C42.6007 79.0529 49.0286 79.4052 49.8278 79.4073C48.826 79.5294 38.7693 80.5337 37.6683 71.9911C37.6683 71.9911 36.982 81.8503 42.3187 84.7703C46.0494 86.8139 47.6242 84.0848 47.6242 84.0848C47.6242 84.0848 53.1583 85.6784 54.3269 95.7307C55.0946 102.295 52.2036 103.488 52.6941 109.181C53.0537 113.419 57.6284 112.366 58.682 116.025C59.7578 119.774 56.9477 121.702 59.0892 127.158C59.0892 127.158 55.9995 123.857 55.9651 119.333C55.942 114.818 50.1652 117.919 46.1233 113.491C41.0491 107.961 45.6023 101.794 39.8062 99.4535C39.8062 99.4535 31.4114 100.371 25.0276 94.5219C19.2702 89.218 20.1696 84.2898 20.2167 84.0017C20.028 84.2016 17.6115 87.0664 21.0877 93.9986C21.0891 93.9972 10.6777 88.9375 12.2947 81.4172Z" fill="#9747FF"/>
<path d="M0.477803 26.8918C3.23129 30.4058 3.11248 36.0076 2.68312 39.5413C-0.0468722 38.8167 -2.43074 39.4523 -2.43074 39.4523C-1.75278 32.7478 -3.21242 27.5617 -5.1211 23.7997C-4.43595 23.9103 -3.79309 24.0743 -3.19109 24.2904L-3.16883 24.369C-3.13649 24.3563 -3.09714 24.3477 -3.0648 24.335C-1.62795 24.879 -0.4377 25.7256 0.477803 26.8918Z" fill="#9747FF"/>
<path d="M12.3098 37.5717C14.3987 45.3869 10.6104 53.9073 10.6104 53.9073C10.4532 44.8524 7.10297 41.2684 3.83805 39.93C3.96709 38.9409 4.0741 37.786 4.10269 36.5387C4.64852 36.7465 5.21241 37.0343 5.71157 37.3617C6.48416 37.8667 7.19041 38.4913 7.82059 39.2003C8.42262 39.9291 8.97956 40.717 9.41127 41.5853C9.86408 42.4437 10.1959 43.3642 10.4912 44.3045C10.3294 43.3344 10.1298 42.3601 9.79235 41.4199C9.47603 40.4699 9.01913 39.5679 8.48629 38.6999C7.9239 37.8502 7.25461 37.057 6.47127 36.3694C5.75936 35.7617 5.02333 35.2426 4.09035 34.8391C4.07455 34.4431 4.05453 34.0456 4.01768 33.6426C4.10331 33.6578 4.19037 33.6717 4.27459 33.6911C4.64097 33.773 4.99884 33.8858 5.3496 34.031C6.05112 34.3213 6.71579 34.7353 7.32545 35.2379C7.91962 35.756 8.47991 36.3416 8.96416 36.9949C9.45685 37.6425 9.87635 38.3521 10.2719 39.08C10.0029 38.2984 9.7072 37.5182 9.3173 36.7734C8.93584 36.023 8.46156 35.3149 7.91414 34.6492C7.34982 33.9976 6.68843 33.4038 5.93122 32.9282C5.55261 32.6905 5.15005 32.4822 4.73054 32.3106C4.52149 32.2227 4.30818 32.1474 4.09628 32.0763L3.79596 31.9788C3.50408 30.2898 2.98036 28.631 2.10214 27.1754C2.31425 27.1706 2.52916 27.1658 2.73844 27.1695C3.32551 27.1848 3.91812 27.2338 4.50779 27.3305C5.68717 27.51 6.85485 27.858 7.97579 28.3565C6.99876 27.6189 5.90625 26.9939 4.73325 26.5307C4.14817 26.2921 3.5419 26.0971 2.9229 25.9372C2.29126 25.7787 1.69324 25.6511 0.972841 25.5954L0.975413 25.6853C0.784955 25.4723 0.601551 25.2467 0.392777 25.0548C-0.108838 24.5926 -0.664 24.1952 -1.26286 23.8555C-1.22491 23.8483 -1.18555 23.837 -1.14621 23.8313C-0.43938 23.71 0.282727 23.6519 1.00887 23.6626C1.73503 23.6649 2.46094 23.7655 3.17402 23.9378C3.89696 24.0946 4.57456 24.4032 5.24786 24.7413C4.65492 24.2892 4.02404 23.8442 3.31411 23.5455C2.61546 23.2299 1.87169 22.9819 1.10658 22.8365C0.341487 22.6826 -0.440651 22.599 -1.2314 22.5884C-2.03201 22.5849 -2.79058 22.6235 -3.6436 22.7845L-3.6046 22.9108C-4.29656 22.723 -5.03645 22.5971 -5.81299 22.5247C-6.06467 22.0928 -6.32062 21.6848 -6.57663 21.2964C-5.86801 21.0304 -5.14544 20.7981 -4.3992 20.6431C-3.38729 20.4156 -2.34777 20.3679 -1.30572 20.4242C-0.258015 20.4691 0.758121 20.7642 1.75863 21.1253C0.820252 20.6404 -0.177241 20.2006 -1.24704 20.0125C-2.30837 19.813 -3.41213 19.7204 -4.50516 19.8189C-5.43658 19.8902 -6.36127 20.064 -7.27206 20.2967C-9.30978 17.5267 -11.1926 16.1791 -11.1926 16.1791C6.18282 13.2886 12.3452 32.6724 12.3452 32.6724C8.98051 29.2514 4.47138 30.46 4.47138 30.46C4.47138 30.46 10.2208 29.7565 12.3098 37.5717Z" fill="#9747FF"/>
<path d="M-1.22052 -23.2896C0.63192 -23.2116 2.34629 -21.917 2.94276 -20.1488C3.96847 -17.112 1.99182 -13.7905 0.166805 -12.5594C-3.27639 -10.2369 -10.4398 -9.18133 -16.0882 -15.8184C-21.8249 -22.5607 -19.1779 -31.3071 -14.0094 -36.9855C-7.34207 -44.3112 4.52694 -48.1113 16.0064 -40.085C23.7187 -34.6965 28.2106 -27.8498 29.3563 -19.7413C30.9543 -8.4485 25.6672 1.67435 22.6499 5.45086L22.2723 5.92381C19.3494 9.59473 14.1999 16.047 6.09917 19.4044C2.98854 16.5614 0.978763 15.9628 0.978763 15.9628C12.6935 13.1464 29.7877 -8.15606 22.2799 -24.9954C15.6337 -39.9057 1.10368 -40.5975 -4.40306 -37.6655C-11.239 -34.0263 -17.3733 -25.9168 -13.4421 -19.49C-9.03117 -12.2794 -1.05041 -15.4159 -0.546835 -19.3937C-0.244134 -21.778 -1.52266 -22.7073 -2.59618 -23.0767C-2.08161 -23.2634 -1.58848 -23.3055 -1.22052 -23.2896Z" fill="#9747FF"/>
<path d="M40.0032 -40.8779C58.8188 -13.8208 42.1962 0.199015 42.1962 0.199015C46.8249 -2.14068 48.3657 -5.28402 48.3657 -5.28402C44.3886 25.6513 17.5374 37.1967 15.2601 37.339C15.2601 37.339 15.4405 36.0547 15.0501 33.9376C15.6114 33.6145 16.174 33.2984 16.7283 32.9598C20.3074 30.7844 23.6668 28.2599 26.7798 25.4748C28.3776 24.1263 29.7905 22.5817 31.2664 21.1086C32.6022 19.5038 34.0557 18.0027 35.2373 16.2803C37.815 12.9994 39.7954 9.31273 41.6383 5.60675C39.6636 9.25128 37.564 12.8442 34.8883 16.0074C33.6591 17.6709 32.1622 19.1117 30.7886 20.6478C29.275 22.0522 27.8314 23.5266 26.2043 24.8007C23.0384 27.4371 19.647 29.8002 16.0586 31.8084C15.6225 32.054 15.1753 32.2827 14.7336 32.5198C14.511 31.7002 14.1974 30.7922 13.7814 29.8185C14.5243 29.3418 15.2658 28.8637 15.9961 28.3688C17.8915 27.0869 19.7393 25.7322 21.5339 24.3074C25.1148 21.4494 28.4857 18.2914 31.3957 14.7174C37.1454 7.57808 41.4547 -0.888971 42.8709 -10.0183C43.5361 -14.5667 43.4769 -19.2537 42.441 -23.7372C41.9385 -25.9776 41.2518 -28.1796 40.3262 -30.277C39.4314 -32.3857 38.3497 -34.4138 37.1019 -36.3264C34.6217 -40.1669 31.6308 -43.6508 28.2074 -46.6658C24.8023 -49.6935 20.8831 -52.1959 16.5935 -53.804C12.321 -55.457 7.66923 -56.081 3.10493 -55.7781C-1.46921 -55.4766 -5.94906 -54.1851 -10.0614 -52.1937C-14.1723 -50.1953 -17.9521 -47.5054 -21.1268 -44.2102C-24.2973 -40.9136 -26.7085 -36.8662 -27.9716 -32.4707C-29.2376 -28.0865 -29.3106 -23.3289 -27.9218 -18.9826C-26.5667 -14.6194 -23.7325 -10.8247 -20.2131 -7.99254C-16.7317 -5.14486 -12.5097 -2.94806 -7.94416 -2.65539C-3.42503 -2.34434 1.26539 -4.12095 4.27046 -7.54067C1.23596 -4.14475 -3.45152 -2.41871 -7.93685 -2.76637C-12.4672 -3.09425 -16.6385 -5.30803 -20.0722 -8.16427C-23.5424 -11.0036 -26.3064 -14.7788 -27.6055 -19.0832C-28.9383 -23.3735 -28.8261 -28.0468 -27.5464 -32.3469C-26.268 -36.6595 -23.8683 -40.6114 -20.7289 -43.8236C-17.5797 -47.04 -13.8338 -49.6597 -9.77782 -51.5891C-5.72189 -53.5129 -1.31946 -54.741 3.14921 -54.9987C7.60665 -55.2563 12.1235 -54.6124 16.2697 -52.9702C20.43 -51.3702 24.2299 -48.9026 27.5354 -45.9126C30.8606 -42.9394 33.7729 -39.4835 36.1564 -35.7227C37.3593 -33.8466 38.3935 -31.866 39.2448 -29.8148C40.1257 -27.7734 40.7731 -25.636 41.2393 -23.4657C42.2054 -19.1253 42.2243 -14.6054 41.5454 -10.2115C40.109 -1.39808 35.8411 6.83992 30.189 13.736C27.3398 17.1792 24.0267 20.2345 20.498 23.0039C18.7302 24.3851 16.9063 25.699 15.0335 26.9442C14.3708 27.3856 13.6969 27.8102 13.0243 28.2362C12.5408 27.3048 11.9619 26.3288 11.2553 25.3123C13.8118 23.6804 16.2394 21.8972 18.5832 19.9765C21.88 17.2428 24.9556 14.2289 27.6725 10.8984C33.1047 4.29786 36.9961 -3.90823 37.3843 -12.5784C37.6275 -16.8897 36.9128 -21.1957 35.7059 -25.284C35.1284 -27.3458 34.2994 -29.3269 33.4084 -31.2713C32.426 -33.1719 31.3945 -35.0569 30.0913 -36.7628C25.0617 -43.719 17.227 -48.4949 8.79059 -49.9178C4.57875 -50.6398 0.217394 -50.5987 -3.95828 -49.603C-8.11001 -48.6313 -12.1604 -46.6878 -15.1828 -43.6178C-18.2933 -40.695 -20.9108 -37.2117 -22.6503 -33.2953C-24.3363 -29.3819 -25.028 -24.9387 -24.0418 -20.7557C-23.0628 -16.5516 -20.1856 -13.0435 -16.7621 -10.6002C-15.8887 -9.99994 -15.0462 -9.34904 -14.0782 -8.90496C-13.1272 -8.43835 -12.2312 -7.86626 -11.2363 -7.48826C-9.27485 -6.68162 -7.14813 -6.21953 -5.01573 -6.30947C-0.745507 -6.41351 3.39013 -8.73083 5.72418 -12.2948C6.88485 -14.0607 7.63489 -16.1724 7.48463 -18.2999C7.37512 -20.4346 6.17663 -22.4077 4.44376 -23.6082C6.16676 -22.3922 7.34136 -20.4148 7.42984 -18.2955C7.56047 -16.182 6.79926 -14.0956 5.63304 -12.355C3.28789 -8.84152 -0.820871 -6.59591 -5.01935 -6.52998C-7.118 -6.45698 -9.20396 -6.93182 -11.1275 -7.74277C-12.1027 -8.12363 -12.9902 -8.70138 -13.9273 -9.17083C-14.8812 -9.61776 -15.7068 -10.2687 -16.5634 -10.869C-19.9209 -13.3111 -22.6914 -16.766 -23.6061 -20.8608C-24.5279 -24.9372 -23.8212 -29.2554 -22.1368 -33.0719C-20.4018 -36.8886 -17.8028 -40.2862 -14.7262 -43.1274C-11.7504 -46.0976 -7.8394 -47.9241 -3.78333 -48.8422C0.285433 -49.7758 4.54135 -49.7787 8.63516 -49.0395C16.8425 -47.5781 24.3895 -42.8731 29.1934 -36.1031C30.4405 -34.4448 31.4217 -32.6074 32.3578 -30.7586C33.204 -28.8647 33.9925 -26.9383 34.5363 -24.9298C35.6775 -20.9325 36.3266 -16.7795 36.0557 -12.6395C35.6081 -4.32171 31.8145 3.53719 26.4756 9.91555C21.8848 15.4056 16.2891 20.1245 10.2169 23.9021C10.1777 23.8516 10.1455 23.8025 10.1035 23.7521C9.17674 22.5859 8.30008 21.5994 7.47504 20.749C15.5834 17.157 20.7146 10.7371 23.6628 7.03519L24.0377 6.56506C27.2226 2.58163 32.8005 -8.09539 31.1199 -19.992C30.1341 -26.9575 26.8495 -33.0307 21.3275 -38.1048C20.023 -39.3051 18.5891 -40.4516 17.0343 -41.5389C4.66884 -50.1836 -8.12662 -46.0763 -15.3208 -38.1732C-23.225 -29.4902 -22.0827 -20.1035 -17.4438 -14.6534C-11.0504 -7.14463 -2.81341 -8.39692 1.16027 -11.079C3.79578 -12.8572 5.87446 -17.0484 4.63413 -20.7195C3.8063 -23.1669 1.43588 -24.9514 -1.13141 -25.0626C-1.93193 -25.097 -2.68656 -24.9559 -3.37416 -24.6718C-0.0772781 -30.6107 11.2124 -26.7429 11.4185 -15.5068C11.6075 -5.24539 0.67732 -2.70356 0.67732 -2.70356C5.0072 -2.53106 7.19613 -3.80662 7.19613 -3.80662C7.19613 -3.80662 -1.84546 5.28259 -15.7843 0.42181C-23.8125 -2.37869 -29.2823 -9.12443 -31.5716 -14.4951C-36.7503 -26.6423 -30.0945 -33.3317 -30.0945 -33.3317C-34.3162 -30.3568 -35.9054 -26.9381 -35.9054 -26.9381C-35.9054 -26.9381 -38.2157 -35.5041 -23.4879 -49.5231C-7.8673 -64.39 -0.388811 -58.2212 0.808914 -57.0179C-3.04673 -61.2284 -5.23625 -61.3139 -5.23625 -61.3139C-5.23625 -61.3139 4.28722 -62.5134 15.3704 -59.1676C23.3448 -56.7645 32.8097 -51.2233 40.0032 -40.8779Z" fill="#9747FF"/>
<path d="M-63.4359 -41.002C-63.9724 -40.5047 -64.5145 -40.0131 -65.0398 -39.499C-66.7114 -37.8442 -68.3158 -36.1081 -69.6735 -34.1985C-68.1028 -35.9345 -66.3262 -37.4477 -64.495 -38.8754C-64.0235 -39.2377 -63.5366 -39.5817 -63.0553 -39.9341C-62.673 -38.966 -62.2877 -38.0765 -61.905 -37.2544C-62.7325 -36.6791 -63.5473 -36.0828 -64.3341 -35.4557C-65.3617 -34.6383 -66.3528 -33.7761 -67.2641 -32.8312C-68.1739 -31.8905 -69.0278 -30.8853 -69.6825 -29.7599C-68.9128 -30.8098 -67.9693 -31.7028 -66.9825 -32.5271C-65.9943 -33.3528 -64.9389 -34.0916 -63.8528 -34.78C-63.0536 -35.2877 -62.2335 -35.7633 -61.4035 -36.2205C-60.8726 -35.1573 -60.354 -34.2246 -59.8575 -33.4183C-60.9607 -32.6709 -62.0107 -31.8591 -63.0032 -30.987C-64.0268 -30.0531 -65.0266 -29.0953 -65.9227 -28.0479C-66.8412 -27.0229 -67.6701 -25.9251 -68.468 -24.8134C-67.5607 -25.8383 -66.6325 -26.8395 -65.6271 -27.7579C-64.6414 -28.696 -63.5703 -29.5346 -62.4867 -30.3381C-61.4298 -31.0923 -60.3296 -31.7779 -59.1959 -32.3877C-58.6517 -31.5787 -58.1534 -30.9226 -57.7235 -30.4055C-57.8881 -30.325 -58.0568 -30.2487 -58.2172 -30.1668C-59.5844 -29.4244 -60.7934 -28.4984 -61.9645 -27.5486C-63.1133 -26.5707 -64.213 -25.5495 -65.258 -24.4792C-66.3129 -23.4187 -67.3047 -22.3009 -68.3006 -21.1928C-67.2052 -22.207 -66.1196 -23.2226 -64.9765 -24.1752C-63.8447 -25.1389 -62.6694 -26.0424 -61.4634 -26.8897C-60.2421 -27.7076 -58.9927 -28.4863 -57.678 -29.0474C-57.3841 -29.1647 -57.0874 -29.2765 -56.7922 -29.3784C-56.3733 -28.9567 -56.1252 -28.7678 -56.1252 -28.7678C-56.2937 -27.7448 -56.4256 -26.7388 -56.5308 -25.7454L-56.7038 -25.6481C-56.995 -25.4717 -57.2792 -25.2996 -57.555 -25.1163C-58.1107 -24.7538 -58.6525 -24.383 -59.1845 -23.9939C-60.2484 -23.2214 -61.2815 -22.4124 -62.2712 -21.5544C-64.2464 -19.8397 -66.0942 -17.9443 -67.5396 -15.8097C-65.8657 -17.7861 -63.871 -19.4306 -61.78 -20.8857C-60.733 -21.6132 -59.6525 -22.2847 -58.5581 -22.9112C-58.0123 -23.2273 -57.4581 -23.5237 -56.9025 -23.8047C-56.8294 -23.8414 -56.7562 -23.8753 -56.6831 -23.9092C-56.7459 -23.0143 -56.7862 -22.1336 -56.8025 -21.2627C-57.6926 -20.8881 -58.5126 -20.4519 -59.3146 -19.9526C-60.5161 -19.1993 -61.6224 -18.3255 -62.5971 -17.3257C-63.5759 -16.3301 -64.4595 -15.2448 -65.1692 -14.0363C-65.9209 -12.8615 -66.4624 -11.5468 -66.9491 -10.228C-66.3067 -11.4615 -65.6209 -12.6601 -64.7459 -13.6976C-63.9115 -14.7673 -62.9259 -15.6913 -61.8703 -16.5116C-60.8174 -17.3374 -59.6596 -18.0245 -58.439 -18.5812C-57.9102 -18.8242 -57.3548 -19.0434 -56.7939 -19.2345C-56.7736 -18.3834 -56.7323 -17.5449 -56.6685 -16.7178C-56.9445 -16.4699 -57.1571 -16.2797 -57.1599 -16.2741L-57.2741 -16.1206L-57.5193 -15.7969L-58.0099 -15.1383C-58.3341 -14.6964 -58.6527 -14.2517 -58.9587 -13.7972C-59.5721 -12.8896 -60.1589 -11.9666 -60.6797 -11.0059C-61.7214 -9.10136 -62.6047 -7.04691 -62.8027 -4.93809C-62.3196 -7.01536 -61.2093 -8.86815 -59.9687 -10.5766C-59.3484 -11.435 -58.6679 -12.2501 -57.9677 -13.0456C-57.6183 -13.4426 -57.2577 -13.8312 -56.8929 -14.2156L-56.4661 -14.6564C-56.33 -13.5373 -56.1574 -12.4436 -55.9481 -11.3753C-56.3962 -10.8403 -56.826 -10.3012 -57.2446 -9.7453C-57.9734 -8.76999 -58.6503 -7.76532 -59.271 -6.73832C-60.5069 -4.68715 -61.4861 -2.50885 -61.9736 -0.345896C-61.1841 -2.48858 -59.9638 -4.49336 -58.5403 -6.32872C-57.8258 -7.245 -57.0677 -8.1291 -56.2691 -8.96975C-56.0466 -9.2035 -55.8128 -9.43167 -55.5818 -9.66264C-55.2985 -8.44983 -54.9842 -7.26238 -54.6193 -6.11159C-55.7386 -4.59167 -56.7652 -3.04389 -57.6993 -1.42895C-58.3033 -0.393568 -58.8441 0.679566 -59.2838 1.77491C-59.7109 2.86319 -60.0763 4.01031 -60.0202 5.0945C-59.9203 3.98883 -59.4217 2.9158 -58.8768 1.90305C-58.3179 0.887454 -57.6734 -0.0876341 -56.9672 -1.02637C-56.0679 -2.23389 -55.0886 -3.4037 -54.0771 -4.52725C-53.8066 -3.76949 -53.5249 -3.02299 -53.2248 -2.29201C-53.6463 -1.73888 -54.0411 -1.18162 -54.4162 -0.601934C-55.0735 0.41673 -55.6507 1.47311 -56.1424 2.54752C-57.1467 4.68937 -57.7609 6.9257 -58.0054 9.08941C-57.4589 6.91788 -56.5683 4.79739 -55.3524 2.85864C-54.7571 1.88509 -54.0903 0.952075 -53.3632 0.0736824C-53.1166 -0.226151 -52.8489 -0.519015 -52.5841 -0.811874C-52.2713 -0.110414 -51.9459 0.578382 -51.6092 1.25591C-52.079 2.05355 -52.525 2.84973 -52.9457 3.6655C-53.5232 4.79211 -54.0614 5.93547 -54.5195 7.09968C-55.433 9.40844 -56.1517 11.8698 -55.9654 14.1714C-55.8454 11.8184 -54.8603 9.5221 -53.7154 7.37145C-53.1409 6.28979 -52.4934 5.23885 -51.8122 4.21029C-51.4921 3.73048 -51.1608 3.25063 -50.8224 2.77779C-50.508 3.36548 -50.185 3.9419 -49.8565 4.50989C-50.3671 5.34838 -50.8315 6.18534 -51.2439 7.05447C-51.8203 8.28923 -52.2928 9.5546 -52.6487 10.8267C-53.0201 12.0974 -53.2131 13.386 -53.2853 14.6404C-53.3799 15.9034 -53.2062 17.1137 -52.9789 18.2733C-53.0571 17.0627 -53.075 15.8422 -52.8343 14.6069C-52.6161 13.3802 -52.2856 12.1587 -51.7937 10.9747C-51.3172 9.78939 -50.7383 8.63609 -50.0696 7.53031C-49.7423 6.99008 -49.3854 6.44556 -49.0175 5.92348C-48.7168 6.41289 -48.4119 6.89806 -48.1027 7.37339C-48.0258 7.49258 -47.9446 7.60192 -47.8677 7.7183L-47.8973 7.76473C-48.0385 8.05726 -48.1783 8.34838 -48.3041 8.64227C-48.5655 9.22587 -48.7974 9.8136 -49.0139 10.4027C-49.4454 11.5823 -49.7955 12.7729 -50.0684 13.9647C-50.3511 15.1552 -50.5073 16.3509 -50.5947 17.5281C-50.6878 18.7082 -50.6164 19.864 -50.4929 20.9874C-50.4674 19.8271 -50.3857 18.6695 -50.1466 17.5087C-49.9146 16.3521 -49.6166 15.2024 -49.2034 14.0748C-48.8001 12.9486 -48.3267 11.8392 -47.7844 10.7618C-47.5133 10.2245 -47.2282 9.69005 -46.922 9.17375L-46.898 9.13295C-46.488 9.71196 -46.0709 10.2671 -45.6524 10.8095C-45.6567 10.8531 -45.6653 10.9009 -45.6696 10.9444C-45.7429 11.5697 -45.7515 12.175 -45.777 12.7833C-45.7816 13.987 -45.7427 15.178 -45.6053 16.3351C-45.3488 18.6562 -44.8645 20.8952 -44.1552 23.0184C-43.408 25.1205 -42.5735 27.1774 -41.4505 29.0411C-40.9531 30.0146 -40.2966 30.8795 -39.7204 31.7909C-39.1033 32.6756 -38.4116 33.5025 -37.7622 34.3575C-38.3412 33.4461 -38.9611 32.5671 -39.5036 31.6331C-40.0053 30.6722 -40.5858 29.765 -41.0017 28.7548C-41.9643 26.8148 -42.6287 24.7083 -43.2018 22.5861C-43.7355 20.4441 -44.0428 18.2158 -44.1266 15.9519C-44.1758 14.9 -44.1336 13.8324 -44.0634 12.7675C-43.4291 13.506 -42.789 14.1996 -42.1475 14.8581C-42.1658 15.4031 -42.1503 15.934 -42.1405 16.4677C-42.0721 17.6684 -41.9643 18.855 -41.7566 20.0006C-41.3624 22.3017 -40.746 24.5067 -39.9116 26.5832C-39.0406 28.6372 -38.0838 30.639 -36.8525 32.4336C-36.2988 33.3761 -35.5917 34.1987 -34.9605 35.0749C-34.2928 35.9229 -33.5504 36.7047 -32.8531 37.5203C-33.4857 36.6455 -34.1576 35.8045 -34.7536 34.9072C-35.313 33.9788 -35.9441 33.1082 -36.4205 32.1249C-37.497 30.2456 -38.2851 28.1844 -38.9847 26.1018C-39.6463 23.9953 -40.0843 21.7913 -40.3044 19.5375C-40.41 18.5419 -40.4339 17.5293 -40.4284 16.5151C-39.8203 17.0669 -39.2135 17.5808 -38.6094 18.0582C-38.6156 18.2801 -38.626 18.5035 -38.6182 18.7141C-38.6184 19.342 -38.5596 19.9444 -38.5163 20.551C-38.3846 21.7474 -38.2122 22.9254 -37.9427 24.0596C-37.4248 26.335 -36.6904 28.5032 -35.7463 30.5317C-34.7656 32.5349 -33.7032 34.4816 -32.3763 36.2057C-31.7719 37.1171 -31.0211 37.8989 -30.3449 38.7412C-29.6336 39.5512 -28.8504 40.2921 -28.108 41.0683C-28.787 40.2288 -29.504 39.4272 -30.1478 38.5609C-30.755 37.6636 -31.4354 36.8283 -31.9638 35.8717C-33.1389 34.0545 -34.0381 32.0371 -34.8487 29.9956C-35.6228 27.9287 -36.1788 25.7502 -36.5198 23.5136C-36.6994 22.3989 -36.7835 21.253 -36.831 20.1097C-36.8304 19.8653 -36.8213 19.6237 -36.8207 19.3793C-36.3257 19.7137 -35.8363 20.0228 -35.3511 20.3053C-35.3447 20.5202 -35.3424 20.7393 -35.3219 20.9457C-35.2856 21.5734 -35.1931 22.1701 -35.1147 22.7725C-34.9127 23.9574 -34.6714 25.1226 -34.3373 26.2398C-33.6859 28.4798 -32.8263 30.6012 -31.7641 32.5704C-30.668 34.5115 -29.4946 36.3947 -28.0677 38.0385C-27.4112 38.9118 -26.6168 39.6499 -25.8913 40.4514C-25.1335 41.2177 -24.3094 41.9122 -23.522 42.6433C-24.2503 41.8446 -25.0109 41.0868 -25.704 40.2585C-26.3647 39.3978 -27.0902 38.6048 -27.6734 37.6807C-28.954 35.9354 -29.9685 33.9745 -30.8945 31.9838C-31.7866 29.965 -32.4706 27.8248 -32.9409 25.611C-33.1851 24.5077 -33.3366 23.3703 -33.4488 22.2329C-33.4676 21.9071 -33.4766 21.5827 -33.4926 21.2569C-33.1222 21.4244 -32.7532 21.585 -32.394 21.7189C-32.0974 22.6858 -31.7726 23.6274 -31.393 24.5563C-30.8516 25.8808 -30.2271 27.1671 -29.5281 28.4097C-28.8376 29.6552 -28.0682 30.8554 -27.2159 31.9895C-26.3874 33.1391 -25.4309 34.1885 -24.4574 35.2015C-25.3126 34.0843 -26.1397 32.9502 -26.8261 31.7342C-27.5351 30.5352 -28.154 29.2882 -28.6857 28.01C-29.2259 26.7375 -29.686 25.4352 -30.0603 24.1145C-30.2357 23.5054 -30.3913 22.8822 -30.5301 22.2617C-30.2985 22.313 -30.0655 22.3658 -29.8394 22.4003C-29.8031 22.4789 -29.7725 22.5575 -29.7347 22.6374C-29.1048 23.9827 -28.3709 25.2716 -27.5595 26.5027C-25.9536 28.9789 -24.0282 31.2225 -21.8929 33.2198C-20.8169 34.2367 -19.7434 35.1328 -18.8193 36.2259C-17.9035 37.3106 -17.0456 38.4643 -16.3705 39.728C-15.0049 42.2372 -14.0699 45.0341 -13.8514 47.9255C-13.921 45.0225 -14.7125 42.1522 -15.9753 39.5205C-16.5968 38.1948 -17.4138 36.9666 -18.3026 35.7989C-19.19 34.6299 -20.2913 33.6046 -21.2648 32.5833C-23.2496 30.5252 -25.0021 28.2516 -26.4227 25.7946C-27.0491 24.7259 -27.6024 23.6178 -28.0896 22.4856C-27.9688 22.4796 -27.8424 22.4849 -27.7243 22.4734C-24.5093 25.1251 -20.9403 28.342 -19.206 30.0481C-16.4812 32.7447 -14.0188 35.8437 -12.8022 39.4686C-11.7403 43.15 -11.5935 47.1105 -11.8075 51.0144C-11.8438 51.9949 -11.8226 53.002 -11.6272 53.9832C-11.4571 54.9814 -10.9144 55.8705 -10.2985 56.633C-8.98069 58.1226 -7.28107 59.1546 -5.60242 60.146C-7.2444 59.0983 -8.90592 58.0002 -10.1366 56.5019C-10.709 55.7351 -11.1955 54.8796 -11.3222 53.922C-11.4742 52.9757 -11.4632 52.0065 -11.3932 51.0316C-11.0485 47.1287 -11.0281 43.127 -12.008 39.2263C-13.1621 35.3457 -15.6141 32.0514 -18.3146 29.1763C-20.1788 27.2107 -23.1433 24.3504 -25.8958 22.0148C-25.7481 21.9512 -25.6201 21.8736 -25.485 21.8002C-23.0378 23.2166 -19.9438 25.429 -18.1126 27.1813C-15.9634 29.2207 -14.117 31.5881 -12.6561 34.1785C-11.1952 36.7633 -10.0593 39.575 -9.4983 42.5246C-9.11169 43.9815 -9.03002 45.4884 -8.87107 46.9881C-8.75647 47.7364 -8.83292 48.4937 -8.82509 49.248L-8.85218 51.5164L-8.72115 49.2477C-8.69526 48.4905 -8.5837 47.7318 -8.66456 46.9749C-8.75324 45.461 -8.76603 43.9329 -9.08933 42.4406C-9.52237 39.4247 -10.5428 36.5003 -11.9233 33.7762C-13.3023 31.0452 -15.0963 28.5104 -17.2268 26.2926C-19.1598 24.278 -21.7277 22.2987 -24.2449 20.7646C-24.0926 20.5647 -23.9656 20.3509 -23.8583 20.1259C-21.9866 20.8878 -19.6301 22.0979 -18.2185 23.1378C-16.4718 24.4282 -14.8745 25.9353 -13.4575 27.6086C-12.0884 29.3157 -10.8024 31.12 -9.80474 33.095C-9.2356 34.0472 -8.86617 35.0983 -8.38565 36.0971C-7.967 37.1241 -7.62429 38.1822 -7.23799 39.2276C-7.55822 38.1638 -7.83486 37.0816 -8.19162 36.0235C-8.61166 34.9923 -8.9192 33.9073 -9.43344 32.9114C-10.3185 30.8518 -11.5073 28.9335 -12.8058 27.0914C-14.1523 25.283 -15.7069 23.6185 -17.4489 22.1553C-18.9822 20.8868 -21.4002 19.587 -23.4822 18.6739C-23.4678 18.525 -23.4491 18.3747 -23.4459 18.2202C-23.4457 18.1331 -23.4553 18.0586 -23.4607 17.9772C-22.1287 18.3459 -20.5628 18.9569 -19.4221 19.4076C-17.9671 19.9866 -16.5658 20.7034 -15.2435 21.5525C-13.9086 22.3861 -12.6949 23.4082 -11.5953 24.5444C-10.4606 25.6595 -9.59474 27.007 -8.77953 28.3855C-9.46817 26.9476 -10.227 25.5043 -11.2814 24.2697C-12.2992 23.0153 -13.4577 21.854 -14.76 20.8728C-16.0509 19.8776 -17.442 19.0048 -18.9064 18.2699C-20.145 17.6566 -21.7219 16.9444 -23.7289 16.8978C-24.5283 15.3858 -26.7552 15.6206 -26.7552 15.6206C-26.7552 15.6206 -22.2665 12.0509 -13.7583 16.5567C-4.42808 21.4957 -4.16858 34.8526 -4.16858 34.8526C-4.16858 34.8526 -4.59316 31.8255 -10.0461 30.3637C-10.0461 30.3637 -2.69325 33.5986 -4.34586 45.0125C-5.99846 56.4263 -7.77935 54.7891 -3.73324 57.0945C0.312875 59.3999 1.75823 66.7912 1.50405 71.0015C1.50405 71.0015 -1.4 63.8865 -4.05022 63.2699C-6.70044 62.6533 -12.8922 61.1879 -15.2749 55.5801C-18.5147 47.9548 -14.0146 42.1882 -23.5633 37.0503C-23.5633 37.0503 -15.8916 42.9194 -21.7797 51.9427C-21.7797 51.9427 -21.2821 47.0295 -25.7833 44.7112C-30.2816 42.3958 -49.0226 31.671 -47.4685 18.739C-47.4685 18.739 -49.469 23.1154 -47.615 27.3608C-47.615 27.3608 -58.9289 16.244 -62.8107 3.88694C-66.6925 -8.47013 -62.0495 -13.5277 -62.0495 -13.5277C-62.0495 -13.5277 -66.6939 -8.47154 -65.9455 -3.60523C-65.9455 -3.60523 -80.2559 -34.1198 -63.559 -55.4647C-63.5591 -55.4619 -66.1286 -48.9083 -63.4359 -41.002Z" fill="#9747FF"/>
</g>
<defs>
<clipPath id="clip0_826_225">
<rect width="174" height="72" rx="36" transform="matrix(1 0 0 -1 0 72)" fill="white"/>
</clipPath>
</defs>
</svg>
