<svg width="204" height="50" viewBox="0 0 204 50" fill="none" xmlns="http://www.w3.org/2000/svg">
<g clip-path="url(#clip0_24_302)">
<path d="M12.0066 49.9759C10.7894 49.9759 9.74978 49.2386 8.88762 47.7642C8.43345 47.0527 8.20637 46.4423 8.20637 45.9328C8.20637 45.2214 8.73888 44.4838 9.8039 43.72C10.2959 43.3812 10.6567 42.8829 10.8258 42.3089C11.0029 41.725 11.0918 40.924 11.0926 39.9058V35.9391C11.0926 34.0576 11.4219 32.4173 12.0804 31.0179C12.739 29.6186 13.7533 28.0041 15.1233 26.1742C16.5434 24.1895 17.6212 22.4474 18.357 20.9479C19.0927 19.4483 19.4602 17.6546 19.4595 15.5666C19.4595 13.2274 18.9145 11.4473 17.8245 10.2264C16.7345 9.00549 15.2513 8.39505 13.3748 8.39505C12.0924 8.37751 10.8213 8.63779 9.64835 9.15811V9.46333C11.7776 9.56583 13.4384 10.2271 14.6306 11.4473C15.8227 12.6674 16.4185 14.1931 16.4177 16.0245C16.4177 18.1603 15.6823 19.9403 14.2116 21.3647C12.7408 22.7891 10.8394 23.5009 8.50726 23.5001C6.1244 23.5001 4.18511 22.7375 2.68938 21.2121C1.19366 19.6868 0.445801 17.6531 0.445801 15.1111C0.445801 12.8735 1.00329 10.852 2.11827 9.04649C3.23325 7.24098 4.80391 5.81698 6.83025 4.77452C8.85659 3.73358 11.1653 3.21235 13.7563 3.21083C17.6084 3.21083 20.674 4.31707 22.9532 6.52955C25.2323 8.74203 26.3734 11.7031 26.3764 15.4129C26.3764 17.6519 26.0086 19.6355 25.2728 21.3636C24.5371 23.0917 23.4853 25.024 22.1175 27.1605C20.9503 28.9417 20.0756 30.4549 19.4935 31.7001C18.903 32.9786 18.604 34.373 18.6181 35.7819V40.1302C18.6181 41.3511 18.2885 42.3935 17.6292 43.2576H32.3896V21.6027C32.3896 20.0766 32.2246 19.0084 31.8946 18.3979C31.5642 17.7875 30.9181 17.357 29.9553 17.1007C29.3497 16.8988 28.8933 16.581 28.586 16.1475C28.2811 15.7126 28.122 15.1917 28.1318 14.6601C28.1318 14.1005 28.3093 13.5155 28.6643 12.9051C31.7572 7.36246 35.8897 3.03962 41.0619 -0.0634766L45.3969 5.20047C43.2935 6.38848 41.3291 7.80877 39.5405 9.43486C37.7162 11.087 36.2966 12.7016 35.2815 14.2786C37.0543 14.8336 38.2578 15.671 38.8921 16.7909C39.5265 17.9108 39.8432 19.5907 39.8425 21.8305V43.7963C39.8425 45.4249 39.3482 46.7346 38.3596 47.7254C37.3711 48.7163 36.04 49.2121 34.3664 49.2128H15.8091C14.8448 49.2128 14.008 49.3647 13.2987 49.6684C12.9022 49.8823 12.4567 49.9883 12.0066 49.9759ZM10.8655 18.3148C11.185 18.0274 11.4388 17.6742 11.6095 17.2793C11.7802 16.8843 11.8638 16.4571 11.8545 16.0267C11.8614 15.591 11.777 15.1587 11.6066 14.7579C11.4363 14.357 11.1838 13.9966 10.8655 13.7C10.5551 13.392 10.1868 13.1491 9.78195 12.9852C9.37709 12.8214 8.94379 12.7399 8.50726 12.7456C7.54367 12.7456 6.74509 13.0637 6.11153 13.7C5.80294 14.002 5.55938 14.3644 5.39593 14.7646C5.23247 15.1648 5.15257 15.5943 5.16119 16.0267C5.16119 16.994 5.47797 17.7696 6.11153 18.3535C6.74509 18.9374 7.54367 19.2297 8.50726 19.2304C9.3821 19.2454 10.2282 18.9172 10.8655 18.3159V18.3148Z" fill="white"/>
<path d="M49.5592 47.6834C48.0121 46.1573 47.2388 44.0465 47.2396 41.3511C47.2396 38.1471 48.1267 35.5022 49.901 33.4165C51.6036 31.3757 53.9293 29.9547 56.5182 29.3734V18.1634C55.6053 18.4671 54.8193 18.6189 54.16 18.6189C52.1321 18.6189 50.421 17.9196 49.0267 16.5211C47.6325 15.1225 46.9353 13.3299 46.9353 11.1433C46.9353 8.85409 47.7085 6.95936 49.255 5.45906C50.8014 3.95877 52.8928 3.20862 55.5293 3.20862C58.1157 3.20862 60.1947 3.94624 61.7661 5.42148C63.3375 6.89672 64.1232 8.85485 64.1232 11.2959V29.378C67.0764 29.788 69.9579 30.6099 72.6843 31.8198C75.4479 33.0392 77.7944 34.5903 79.7239 36.4733V3.97395H87.1779V49.2129H79.7148V44.4831C77.9637 41.9084 75.6485 39.7697 72.9466 38.2306C70.2126 36.6887 67.2236 35.6547 64.1232 35.1784V41.8978C64.1232 44.3897 63.4007 46.3604 61.9557 47.8098C60.5107 49.2592 58.47 49.9839 55.8336 49.9839C53.1964 49.9786 51.1049 49.2118 49.5592 47.6834ZM57.8103 13.4336C58.1092 13.1344 58.344 12.7771 58.5002 12.3837C58.6564 11.9902 58.7307 11.5689 58.7187 11.1455C58.727 10.7132 58.647 10.2837 58.4835 9.88351C58.3201 9.48335 58.0767 9.121 57.7683 8.81879C57.4791 8.51457 57.1308 8.27297 56.7449 8.10883C56.3591 7.9447 55.9438 7.86151 55.5247 7.8644C54.5604 7.8644 53.7618 8.18253 53.129 8.81879C52.8204 9.12083 52.5769 9.48315 52.4134 9.88336C52.2499 10.2836 52.17 10.7131 52.1787 11.1455C52.1787 12.1128 52.4954 12.8884 53.129 13.4723C53.7626 14.0562 54.5611 14.3485 55.5247 14.3492C55.9479 14.3614 56.369 14.2865 56.7621 14.129C57.1552 13.9715 57.512 13.7348 57.8103 13.4336ZM58.3417 42.3477V34.413C56.466 34.7167 55.0592 35.4669 54.1214 36.6635C53.1835 37.8601 52.7142 39.4496 52.7134 41.432C52.7134 42.6529 52.9784 43.5936 53.5082 44.2542C54.0381 44.9147 54.8113 45.2454 55.8279 45.2461C57.5053 45.2461 58.3436 44.28 58.3428 42.3477H58.3417Z" fill="white"/>
<path d="M96.5168 27.8599H99.4542V34.5542H107.088V27.8599H110.026V44.6915H107.088V37.1008H99.4542V44.6915H96.5168V27.8599Z" fill="white"/>
<path d="M128.736 36.2751C128.736 41.1085 125.705 45.0912 120.699 45.0912C115.693 45.0912 112.661 41.1051 112.661 36.2751C112.661 31.4917 115.693 27.4589 120.699 27.4589C125.705 27.4589 128.736 31.4894 128.736 36.2751ZM114.072 22.9091L116.21 26.2802H114.26L110.923 22.9091H114.072ZM115.603 36.2751C115.603 39.5049 117.107 42.687 120.703 42.687C124.299 42.687 125.804 39.5049 125.804 36.2751C125.804 33.0452 124.299 29.8631 120.703 29.8631C117.107 29.8631 115.603 33.0463 115.603 36.2751ZM119.034 26.2802H116.877L119.392 22.9091H122.003L124.542 26.2802H122.356L120.687 24.1584L119.034 26.2802Z" fill="white"/>
<path d="M131.298 27.8599H134.4L142.058 40.2589H142.106V27.8599H144.902V44.6915H141.801L134.163 32.3152H134.092V44.6915H131.296L131.298 27.8599Z" fill="white"/>
<path d="M163.024 44.6915H161.144L160.696 42.711C159.122 44.5025 157.688 45.0913 155.644 45.0913C150.638 45.0913 147.606 41.1052 147.606 36.2751C147.606 31.4918 150.638 27.459 155.644 27.459C159.287 27.459 162.389 29.4156 162.835 33.2104H159.968C159.663 31.018 157.783 29.8632 155.644 29.8632C152.048 29.8632 150.544 33.0521 150.544 36.2751C150.544 39.4982 152.048 42.6871 155.644 42.6871C158.675 42.7577 160.274 40.9195 160.344 38.0666H155.879V35.8275H163.024V44.6915Z" fill="white"/>
<path d="M172.682 27.8599H175.619V34.5542H183.257V27.8599H186.194V44.6915H183.257V37.1008H175.619V44.6915H172.682V27.8599Z" fill="white"/>
<path d="M194.208 27.8599H197.334L203.797 44.6915H200.646L199.072 40.2362H192.373L190.799 44.6915H187.768L194.208 27.8599ZM195.101 22.8624L197.239 26.2335H195.289L191.952 22.8624H195.101ZM193.171 37.996H198.295L195.78 30.7595H195.71L193.171 37.996Z" fill="white"/>
<path d="M98.8273 10.9723L98.8739 11.9427H95.9491C95.9263 11.8891 95.9002 11.8219 95.8741 11.7411C95.8463 11.657 95.8325 11.5689 95.8332 11.4803C95.8244 11.3439 95.8647 11.2089 95.9468 11.0999C95.9866 11.0561 96.0358 11.0219 96.0906 10.9998C96.1455 10.9777 96.2046 10.9683 96.2636 10.9723H98.8273ZM98.0212 11.6306H99.1736V17.9731C99.1271 17.9879 99.0601 18.0073 98.9545 18.03C98.8525 18.054 98.7481 18.0659 98.6434 18.0653C98.4759 18.0793 98.3089 18.0342 98.1711 17.9378C98.1169 17.884 98.0754 17.8187 98.0495 17.7469C98.0236 17.675 98.0139 17.5982 98.0212 17.5221V11.6306ZM98.3902 11.9427L98.3436 10.9723H101.258C101.295 11.0319 101.324 11.0958 101.345 11.1625C101.372 11.2506 101.385 11.3425 101.384 11.4347C101.391 11.5673 101.351 11.6981 101.271 11.8037C101.233 11.8493 101.185 11.8855 101.131 11.9096C101.077 11.9337 101.019 11.945 100.96 11.9427H98.3902Z" fill="white"/>
<path d="M103.795 14.7842H102.629V10.9951C102.682 10.9803 102.759 10.961 102.856 10.9382C102.958 10.9143 103.062 10.9024 103.167 10.9029C103.332 10.891 103.496 10.9338 103.634 11.0248C103.69 11.0763 103.733 11.1401 103.76 11.2113C103.787 11.2825 103.797 11.359 103.789 11.4348L103.795 14.7842ZM102.629 13.6305H103.795V17.9743C103.742 17.9891 103.667 18.0084 103.568 18.0312C103.464 18.0559 103.358 18.0678 103.251 18.0665C103.084 18.0807 102.917 18.0356 102.78 17.939C102.725 17.8853 102.684 17.8201 102.658 17.7481C102.632 17.6762 102.622 17.5994 102.63 17.5233L102.629 13.6305ZM107.73 14.9243H103.25V13.9722H107.73V14.9243ZM108.259 14.7854H107.108V10.9951C107.155 10.9803 107.227 10.961 107.327 10.9382C107.429 10.9142 107.534 10.9024 107.638 10.9029C107.805 10.8896 107.971 10.9324 108.111 11.0248C108.165 11.0794 108.207 11.1456 108.233 11.2185C108.258 11.2914 108.268 11.3692 108.259 11.4462V14.7854ZM107.108 13.6305H108.259V17.9743C108.206 17.9891 108.131 18.0084 108.032 18.0312C107.932 18.0554 107.83 18.0672 107.727 18.0665C107.559 18.0805 107.392 18.0354 107.254 17.939C107.2 17.8851 107.159 17.8199 107.133 17.748C107.107 17.6761 107.097 17.5994 107.105 17.5233L107.108 13.6305Z" fill="white"/>
<path d="M112.717 11.896H112.67C112.562 12.1997 112.437 12.5542 112.296 12.9597C112.154 13.3651 112.008 13.7865 111.858 14.2239C111.707 14.6589 111.563 15.0731 111.427 15.4664L111.334 15.8593C111.289 16.0051 111.234 16.1748 111.173 16.3672C111.111 16.5597 111.047 16.7602 110.977 16.9674L110.782 17.5562C110.72 17.7415 110.67 17.8934 110.632 18.0118C110.57 18.0427 110.504 18.066 110.436 18.0813C110.349 18.0979 110.26 18.1056 110.171 18.1041C110.02 18.1095 109.871 18.0673 109.745 17.9833C109.688 17.9424 109.642 17.8874 109.612 17.8236C109.582 17.7598 109.568 17.6893 109.573 17.6189C109.573 17.5387 109.585 17.459 109.607 17.382C109.63 17.3011 109.657 17.2112 109.688 17.1109C109.772 16.857 109.882 16.5415 110.016 16.1577C110.15 15.7739 110.296 15.3605 110.454 14.9163C110.612 14.4721 110.775 14.0154 110.949 13.5496C111.123 13.0838 111.29 12.6385 111.444 12.2149C111.598 11.7912 111.745 11.4176 111.876 11.0896C111.983 11.0315 112.097 10.9886 112.216 10.9621C112.367 10.9238 112.522 10.9043 112.677 10.904C112.867 10.9024 113.056 10.9336 113.236 10.9962C113.309 11.0159 113.377 11.0523 113.434 11.1024C113.49 11.1526 113.535 11.2153 113.564 11.2855C113.741 11.7244 113.93 12.2228 114.132 12.7809C114.333 13.3389 114.537 13.9205 114.742 14.5257C114.949 15.1331 115.145 15.7204 115.329 16.2875C115.514 16.8547 115.679 17.3706 115.824 17.8353C115.757 17.9174 115.67 17.9809 115.571 18.0198C115.458 18.0673 115.337 18.091 115.215 18.0892C115.064 18.1015 114.913 18.0613 114.788 17.9754C114.68 17.8719 114.604 17.7394 114.57 17.5938L114.002 15.873L113.875 15.3753C113.736 14.9364 113.595 14.4995 113.449 14.0644C113.304 13.6294 113.168 13.2232 113.04 12.8458C112.916 12.4677 112.808 12.1511 112.717 11.896ZM110.805 16.2055L111.197 15.2807H114.283L114.478 16.2055H110.805ZM112.728 9.45875C112.597 9.59769 112.44 9.76131 112.256 9.94961C112.072 10.1387 111.876 10.3254 111.669 10.5099C111.532 10.501 111.4 10.4532 111.289 10.3721C111.24 10.3361 111.201 10.2889 111.175 10.2346C111.149 10.1802 111.137 10.1204 111.139 10.0601C111.136 9.95955 111.169 9.86129 111.231 9.78219C111.309 9.68812 111.394 9.59947 111.484 9.51683L112.095 8.91664C112.317 8.71619 112.532 8.61597 112.74 8.61597C112.866 8.61283 112.991 8.64266 113.102 8.70253C113.22 8.77196 113.327 8.85958 113.419 8.9622L114.352 10.002C114.355 10.0662 114.345 10.1304 114.324 10.1908C114.302 10.2513 114.268 10.3067 114.225 10.3539C114.18 10.3986 114.127 10.4335 114.068 10.4564C114.01 10.4794 113.947 10.4898 113.884 10.4872C113.787 10.486 113.693 10.4558 113.614 10.4006C113.496 10.3162 113.39 10.2171 113.297 10.1056L112.728 9.45875ZM114.536 7.18097C114.79 7.17422 115.039 7.24708 115.25 7.38939C115.351 7.46264 115.431 7.56053 115.484 7.67375C115.536 7.78697 115.559 7.91176 115.55 8.03628C115.558 8.14183 115.541 8.24786 115.5 8.3454C115.459 8.44293 115.395 8.52909 115.314 8.59661C115.155 8.71664 114.965 8.78679 114.766 8.7982V9.08747C114.725 9.10647 114.683 9.12173 114.639 9.13303C114.579 9.14985 114.517 9.1579 114.455 9.15694C114.368 9.16279 114.28 9.14469 114.202 9.10456C114.176 9.08813 114.155 9.065 114.14 9.03756C114.126 9.01013 114.12 8.97939 114.121 8.94853V8.61939C114.116 8.54528 114.136 8.4716 114.179 8.41097C114.203 8.38631 114.232 8.36727 114.263 8.35524C114.295 8.34322 114.329 8.33852 114.363 8.3415H114.455C114.732 8.3415 114.87 8.24583 114.87 8.05336C114.87 8.01344 114.862 7.97389 114.845 7.93776C114.828 7.90162 114.803 7.86987 114.772 7.84495C114.686 7.7848 114.582 7.75624 114.478 7.76408C114.382 7.76396 114.286 7.78173 114.196 7.81647C114.107 7.85104 114.021 7.89175 113.937 7.93833C113.876 7.90459 113.824 7.85418 113.79 7.79279C113.755 7.7314 113.738 7.66149 113.741 7.59097C113.741 7.46797 113.818 7.37003 113.968 7.29714C114.146 7.21671 114.34 7.17777 114.536 7.18325V7.18097Z" fill="white"/>
<path d="M121.262 16.1942C121.186 16.247 121.103 16.2877 121.014 16.3149C120.901 16.3515 120.782 16.3692 120.663 16.3673C120.527 16.3707 120.392 16.3471 120.265 16.2979C120.214 16.2793 120.167 16.2502 120.128 16.2123C120.089 16.1744 120.058 16.1287 120.038 16.078C119.67 15.2542 119.35 14.5132 119.076 13.8549C118.803 13.1967 118.586 12.6477 118.426 12.2081H118.38C118.358 12.7631 118.335 13.279 118.311 13.7559C118.288 14.2327 118.263 14.6932 118.236 15.1373C118.209 15.58 118.184 16.0321 118.161 16.4937C118.138 16.9554 118.108 17.4523 118.069 17.9845C117.999 18.012 117.925 18.0311 117.85 18.0415C117.755 18.0577 117.659 18.0657 117.563 18.0654C117.408 18.0787 117.253 18.0385 117.125 17.9515C117.076 17.9062 117.039 17.8505 117.015 17.7886C116.991 17.7266 116.982 17.6601 116.987 17.5939C116.987 17.4857 116.994 17.2648 117.01 16.9299C117.026 16.5951 117.046 16.1908 117.073 15.717C117.101 15.2432 117.132 14.741 117.171 14.2091C117.21 13.6773 117.247 13.1522 117.285 12.6329C117.322 12.1136 117.362 11.6409 117.398 11.2173C117.485 11.1395 117.584 11.0771 117.691 11.0328C117.846 10.9673 118.013 10.9359 118.18 10.9405C118.37 10.9326 118.559 10.9742 118.728 11.0612C118.877 11.15 118.993 11.2863 119.056 11.4485C119.233 11.8106 119.414 12.2092 119.597 12.6443C119.781 13.0794 119.96 13.5163 120.133 13.9552C120.306 14.394 120.473 14.8059 120.634 15.1909H120.68C120.988 14.405 121.293 13.6503 121.596 12.9267C121.899 12.2032 122.157 11.587 122.372 11.0783C122.466 11.0267 122.567 10.9917 122.672 10.9747C122.794 10.952 122.917 10.9406 123.041 10.9405C123.22 10.9327 123.397 10.9682 123.559 11.0442C123.621 11.0758 123.676 11.1214 123.718 11.1775C123.76 11.2336 123.788 11.2987 123.801 11.3676C123.831 11.5065 123.866 11.7343 123.905 12.0509C123.943 12.3675 123.981 12.7343 124.019 13.1602C124.056 13.5862 124.094 14.0269 124.132 14.4893C124.171 14.9517 124.199 15.4004 124.23 15.856C124.261 16.3115 124.29 16.7079 124.316 17.0689C124.342 17.4299 124.361 17.7158 124.368 17.9242C124.289 17.9756 124.201 18.014 124.11 18.0381C124.006 18.0636 123.9 18.0754 123.793 18.0734C123.654 18.0769 123.517 18.0431 123.395 17.9754C123.336 17.9353 123.288 17.8809 123.255 17.8173C123.221 17.7537 123.205 17.6828 123.206 17.611C123.167 16.8943 123.129 16.1972 123.092 15.52C123.055 14.8427 123.023 14.2209 122.995 13.6545C122.967 13.0888 122.946 12.6211 122.931 12.2514H122.874C122.728 12.6508 122.523 13.1629 122.258 13.7877C121.993 14.4126 121.661 15.2148 121.262 16.1942Z" fill="white"/>
<path d="M133.503 16.1942C133.427 16.2475 133.344 16.2882 133.255 16.315C133.142 16.3516 133.024 16.3693 132.905 16.3673C132.769 16.3708 132.634 16.3471 132.507 16.2979C132.456 16.2793 132.409 16.2502 132.37 16.2123C132.331 16.1744 132.3 16.1287 132.28 16.0781C131.912 15.2543 131.592 14.5132 131.318 13.855C131.045 13.1967 130.828 12.6477 130.668 12.2081H130.622C130.598 12.7631 130.575 13.2791 130.553 13.7559C130.531 14.2327 130.506 14.6932 130.478 15.1373C130.451 15.58 130.426 16.0321 130.403 16.4938C130.38 16.9562 130.349 17.4527 130.311 17.9846C130.241 18.0119 130.167 18.031 130.092 18.0415C129.997 18.0577 129.9 18.0657 129.804 18.0654C129.649 18.0784 129.495 18.0383 129.367 17.9515C129.318 17.9064 129.28 17.8507 129.256 17.7887C129.232 17.7268 129.223 17.6602 129.228 17.5939C129.228 17.4861 129.236 17.2648 129.252 16.93C129.267 16.5951 129.288 16.1908 129.314 15.717C129.34 15.2433 129.375 14.741 129.413 14.2092C129.452 13.6773 129.489 13.1523 129.527 12.6329C129.564 12.1136 129.604 11.641 129.64 11.2173C129.727 11.1398 129.827 11.0775 129.934 11.0328C130.089 10.9673 130.256 10.9358 130.424 10.9405C130.613 10.9327 130.802 10.9743 130.971 11.0613C131.12 11.1504 131.235 11.2866 131.299 11.4485C131.476 11.8107 131.656 12.2093 131.841 12.6443C132.026 13.0794 132.203 13.5156 132.375 13.9552C132.548 14.3948 132.716 14.8059 132.877 15.1909H132.923C133.231 14.405 133.536 13.6503 133.839 12.9268C134.142 12.2032 134.401 11.5871 134.616 11.0783C134.709 11.0267 134.81 10.9917 134.915 10.9747C135.037 10.9521 135.16 10.9406 135.283 10.9405C135.462 10.9326 135.64 10.9682 135.802 11.0442C135.865 11.0758 135.919 11.1214 135.961 11.1775C136.003 11.2336 136.031 11.2987 136.044 11.3676C136.074 11.5066 136.109 11.7343 136.147 12.051C136.186 12.3676 136.224 12.7343 136.261 13.1602C136.297 13.5862 136.336 14.0269 136.374 14.4893C136.413 14.9517 136.441 15.4004 136.472 15.856C136.503 16.3115 136.531 16.7079 136.558 17.0689C136.586 17.4299 136.603 17.7158 136.611 17.9242C136.531 17.9752 136.443 18.0136 136.352 18.0381C136.248 18.0636 136.142 18.0754 136.035 18.0734C135.896 18.077 135.759 18.0432 135.637 17.9755C135.578 17.9352 135.53 17.8809 135.496 17.8173C135.463 17.7537 135.446 17.6828 135.447 17.611C135.41 16.8943 135.372 16.1973 135.333 15.52C135.295 14.8428 135.262 14.2209 135.236 13.6545C135.208 13.0889 135.187 12.6212 135.172 12.2514H135.114C134.969 12.6508 134.764 13.1629 134.499 13.7878C134.234 14.4126 133.902 15.2148 133.503 16.1942Z" fill="white"/>
<path d="M140.897 15.5473H139.875C139.668 15.2307 139.448 14.8917 139.213 14.5303C138.979 14.1681 138.746 13.8014 138.516 13.4267C138.285 13.052 138.071 12.6864 137.871 12.3243C137.671 11.9621 137.495 11.6273 137.342 11.3186C137.397 11.2153 137.471 11.1233 137.56 11.0476C137.669 10.9553 137.809 10.9077 137.952 10.9143C138.102 10.9066 138.251 10.9516 138.373 11.0419C138.5 11.159 138.604 11.3003 138.677 11.4576C138.753 11.6041 138.849 11.7772 138.965 11.9769C139.079 12.1773 139.204 12.3949 139.333 12.6306C139.463 12.8664 139.594 13.0976 139.725 13.3288L140.088 13.9699L140.359 14.4494H140.417C140.662 14.0258 140.884 13.6271 141.084 13.2536C141.284 12.88 141.478 12.5106 141.665 12.1454C141.854 11.7802 142.04 11.4048 142.224 11.0191C142.298 10.9788 142.378 10.9515 142.46 10.9382C142.542 10.9229 142.625 10.9149 142.708 10.9143C142.851 10.906 142.993 10.9515 143.105 11.0419C143.154 11.087 143.193 11.1425 143.218 11.2043C143.242 11.2662 143.253 11.3329 143.249 11.3995C143.222 11.5634 143.168 11.7216 143.088 11.8676C142.98 12.1022 142.826 12.3968 142.627 12.7513C142.428 13.1059 142.182 13.5197 141.89 13.9927C141.597 14.4665 141.265 14.9847 140.897 15.5473ZM139.399 8.77775C139.599 8.77546 139.799 8.80861 139.987 8.8757C140.163 8.94175 140.328 9.00439 140.488 9.06703C140.621 9.12346 140.764 9.15474 140.908 9.15928C140.969 9.1641 141.029 9.15454 141.085 9.13139C141.141 9.10823 141.191 9.07213 141.231 9.02603C141.3 8.93707 141.354 8.83746 141.392 8.73106H141.45C141.601 8.72854 141.75 8.77309 141.876 8.85861C141.938 8.90464 141.988 8.96597 142.02 9.03674C142.052 9.10752 142.066 9.18538 142.059 9.26292C142.065 9.37109 142.044 9.47899 142 9.5779C141.957 9.67681 141.89 9.76397 141.806 9.83236C141.623 9.97619 141.394 10.05 141.161 10.0408C140.952 10.043 140.744 10.0095 140.546 9.94169C140.357 9.87678 140.186 9.81073 140.033 9.74581C139.902 9.68598 139.762 9.65269 139.618 9.64786C139.559 9.6427 139.499 9.65202 139.444 9.67502C139.389 9.69802 139.34 9.73402 139.302 9.77997C139.233 9.87667 139.18 9.98401 139.146 10.0977H139.089C138.936 10.1005 138.785 10.052 138.662 9.95992C138.601 9.91262 138.552 9.85107 138.52 9.78062C138.488 9.71016 138.474 9.63293 138.478 9.55561C138.473 9.4036 138.52 9.2543 138.611 9.13309C138.701 9.01936 138.818 8.93009 138.952 8.87342C139.093 8.81061 139.245 8.77802 139.399 8.77775ZM139.814 15.0496H140.949V17.9731C140.902 17.9879 140.835 18.0073 140.73 18.0301C140.628 18.0541 140.524 18.0659 140.419 18.0654C140.253 18.0801 140.088 18.0349 139.952 17.9378C139.9 17.8849 139.861 17.8214 139.836 17.7516C139.811 17.6818 139.801 17.6074 139.808 17.5335L139.814 15.0496Z" fill="white"/>
<path d="M150.282 14.8081L150.593 14.1248C151.065 14.1096 151.534 14.1962 151.969 14.3788C152.303 14.5233 152.589 14.7604 152.794 15.0621C152.979 15.3512 153.075 15.6888 153.07 16.0324C153.07 16.7408 152.812 17.2681 152.298 17.6144C151.783 17.9606 151.046 18.1341 150.087 18.1348C149.887 18.1348 149.679 18.1291 149.465 18.1166C149.25 18.1053 149.037 18.0825 148.825 18.0483C148.625 18.0155 148.428 17.971 148.233 17.915C147.888 17.8148 147.715 17.6185 147.715 17.3262V11.5179C147.712 11.4617 147.72 11.4056 147.74 11.3529C147.76 11.3002 147.79 11.2521 147.828 11.2115C147.911 11.1328 148.012 11.0753 148.121 11.0441C148.404 10.9629 148.693 10.9087 148.985 10.8824C149.3 10.8516 149.635 10.8357 149.988 10.8357C150.878 10.8357 151.571 10.9936 152.066 11.3095C152.561 11.6253 152.809 12.1105 152.81 12.765C152.813 13.0844 152.723 13.3978 152.55 13.6658C152.35 13.9576 152.067 14.1813 151.738 14.307C151.282 14.4805 150.797 14.561 150.311 14.5439L150.219 13.9198C150.686 13.9198 151.039 13.8238 151.278 13.6317C151.397 13.5324 151.491 13.4066 151.553 13.2642C151.615 13.1218 151.643 12.9668 151.634 12.8117C151.642 12.6555 151.607 12.5002 151.534 12.362C151.461 12.2238 151.353 12.1077 151.22 12.0258C150.944 11.8489 150.538 11.7605 149.999 11.7605C149.786 11.7591 149.573 11.7686 149.36 11.7889C149.172 11.8083 149.001 11.8299 148.847 11.8527V17.0859C149.045 17.1285 149.245 17.1594 149.446 17.1782C149.674 17.2009 149.901 17.2123 150.128 17.2123C150.697 17.2123 151.135 17.1121 151.441 16.9117C151.748 16.7112 151.901 16.4075 151.901 16.0006C151.908 15.8329 151.874 15.6661 151.803 15.5143C151.732 15.3624 151.625 15.23 151.492 15.1282C151.215 14.9156 150.812 14.8089 150.282 14.8081ZM151.491 13.9175V14.8081H148.486V13.9175H151.491Z" fill="white"/>
<path d="M155.91 15.3275H154.775V11.5965C154.771 11.5132 154.784 11.43 154.812 11.3518C154.841 11.2735 154.885 11.2018 154.942 11.1409C155.002 11.0822 155.073 11.0365 155.151 11.0067C155.229 10.977 155.312 10.9637 155.396 10.9678C155.501 10.9675 155.605 10.979 155.707 11.002C155.779 11.0161 155.848 11.0395 155.914 11.0715L155.91 15.3275ZM154.775 13.5952H155.91V17.9036C155.872 17.9185 155.797 17.9401 155.704 17.9674C155.602 17.994 155.498 18.0074 155.393 18.0073C155.309 18.0114 155.226 17.9981 155.147 17.9684C155.069 17.9386 154.998 17.8929 154.938 17.8342C154.882 17.7734 154.837 17.7017 154.809 17.6234C154.78 17.5452 154.767 17.4619 154.772 17.3786L154.775 13.5952ZM155.397 11.9313V10.9724H159.22C159.249 11.0342 159.274 11.0977 159.295 11.1626C159.323 11.2467 159.337 11.3348 159.336 11.4234C159.341 11.5558 159.301 11.686 159.222 11.7924C159.186 11.8382 159.139 11.8746 159.086 11.8988C159.033 11.9229 158.975 11.9341 158.917 11.9313H155.397ZM155.397 14.8765V13.9301H158.862C158.901 13.9863 158.93 14.0486 158.949 14.1146C158.975 14.2005 158.989 14.29 158.988 14.3799C158.995 14.511 158.954 14.6401 158.875 14.7444C158.836 14.7895 158.787 14.8249 158.732 14.8478C158.677 14.8707 158.618 14.8805 158.558 14.8765H155.397ZM155.397 18.0073V17.0597H159.267C159.305 17.1146 159.334 17.1754 159.353 17.2397C159.38 17.3274 159.394 17.4188 159.393 17.5107C159.399 17.6415 159.359 17.7702 159.279 17.874C159.24 17.9193 159.191 17.9548 159.136 17.978C159.081 18.0011 159.022 18.0111 158.962 18.0073H155.397ZM157.1 9.35173C156.962 9.49068 156.802 9.6543 156.622 9.84259C156.442 10.0309 156.245 10.2177 156.03 10.4029C155.896 10.3927 155.768 10.3445 155.661 10.264C155.612 10.2283 155.573 10.1813 155.547 10.1271C155.521 10.073 155.509 10.0132 155.511 9.95307C155.508 9.85253 155.541 9.75428 155.603 9.67518C155.681 9.58111 155.766 9.49245 155.856 9.40982L156.467 8.80848C156.636 8.62961 156.866 8.52242 157.112 8.50896C157.236 8.50537 157.359 8.53526 157.468 8.59551C157.584 8.66594 157.689 8.75347 157.779 8.85518L158.724 9.89499C158.727 9.95963 158.717 10.0242 158.694 10.0847C158.671 10.1453 158.636 10.2005 158.591 10.2469C158.547 10.2916 158.493 10.3265 158.435 10.3494C158.376 10.3724 158.313 10.3828 158.25 10.3801C158.15 10.3797 158.052 10.3496 157.969 10.2936C157.851 10.2092 157.745 10.11 157.652 9.99862L157.1 9.35173ZM157.768 19.5288C157.771 19.6162 157.756 19.7033 157.725 19.7848C157.693 19.8662 157.645 19.9404 157.584 20.0026C157.518 20.0654 157.44 20.1142 157.355 20.1459C157.27 20.1776 157.18 20.1916 157.089 20.1871C157 20.191 156.911 20.1766 156.828 20.1449C156.745 20.1132 156.669 20.0648 156.605 20.0026C156.544 19.9406 156.495 19.8665 156.464 19.785C156.432 19.7035 156.417 19.6163 156.42 19.5288C156.416 19.4399 156.431 19.3511 156.464 19.2684C156.497 19.1858 156.547 19.1111 156.611 19.0494C156.74 18.9288 156.912 18.8645 157.089 18.8706C157.179 18.866 157.269 18.8794 157.354 18.9101C157.439 18.9408 157.517 18.9881 157.584 19.0494C157.647 19.1125 157.695 19.1881 157.727 19.2713C157.759 19.3545 157.773 19.4434 157.768 19.5323V19.5288Z" fill="white"/>
<path d="M166.624 16.4709V17.8444C166.532 17.914 166.429 17.9668 166.319 18.0005C166.179 18.0448 166.034 18.0663 165.887 18.0642C165.701 18.0678 165.515 18.0289 165.346 17.9503C165.165 17.8492 165.02 17.6939 164.931 17.5062L162.95 14.0895C162.843 13.8891 162.723 13.675 162.609 13.4483C162.496 13.2217 162.37 13.0019 162.259 12.79C162.147 12.5782 162.056 12.3948 161.987 12.2411L160.916 12.4951V11.1569C161.001 11.0707 161.106 11.0073 161.222 10.9724C161.361 10.9256 161.507 10.9022 161.653 10.9029C161.842 10.8982 162.029 10.9372 162.201 11.0168C162.38 11.1157 162.523 11.2693 162.609 11.4553L164.602 14.8719C164.709 15.0724 164.829 15.2865 164.943 15.5131C165.056 15.7398 165.179 15.9618 165.283 16.1771C165.388 16.3923 165.474 16.578 165.543 16.7317L166.624 16.4709ZM160.912 12.093L161.913 12.035C161.944 12.2969 161.97 12.5896 161.988 12.913C162.006 13.2365 162.024 13.5645 162.035 13.8948C162.046 14.225 162.052 14.5417 162.052 14.8423V17.9731C162.006 17.9879 161.938 18.0073 161.834 18.0301C161.732 18.054 161.628 18.0658 161.523 18.0654C161.36 18.0779 161.197 18.035 161.062 17.9435C161.008 17.893 160.967 17.8308 160.941 17.7617C160.915 17.6926 160.905 17.6184 160.912 17.5449V12.093ZM166.624 16.8764L165.61 16.9345C165.542 16.3024 165.497 15.6737 165.49 15.045C165.483 14.4164 165.473 13.8116 165.473 13.2228V10.9838C165.527 10.9693 165.602 10.9523 165.7 10.9325C165.8 10.9125 165.902 10.9025 166.004 10.9029C166.171 10.8896 166.337 10.9324 166.477 11.0248C166.53 11.0752 166.572 11.1374 166.598 11.2065C166.624 11.2757 166.634 11.3499 166.626 11.4234L166.624 16.8764Z" fill="white"/>
<path d="M169.722 14.7842H168.559V10.9951C168.612 10.9803 168.69 10.961 168.786 10.9382C168.888 10.9142 168.992 10.9024 169.097 10.9029C169.261 10.8911 169.425 10.9339 169.563 11.0248C169.619 11.0761 169.662 11.14 169.689 11.2112C169.716 11.2824 169.726 11.359 169.718 11.4348L169.722 14.7842ZM168.559 13.6305H169.722V17.9743C169.668 17.9891 169.593 18.0084 169.495 18.0312C169.391 18.0558 169.284 18.0676 169.178 18.0665C169.01 18.0807 168.843 18.0356 168.705 17.939C168.651 17.8851 168.61 17.8199 168.584 17.748C168.558 17.6761 168.548 17.5994 168.556 17.5233L168.559 13.6305ZM173.66 14.9243H169.181V13.9722H173.66V14.9243ZM174.191 14.7854H173.038V10.9951C173.085 10.9803 173.157 10.961 173.257 10.9382C173.359 10.9142 173.464 10.9024 173.568 10.9029C173.735 10.8896 173.901 10.9324 174.041 11.0248C174.141 11.1056 174.191 11.2457 174.191 11.4462V14.7854ZM173.038 13.6305H174.191V17.9743C174.136 17.9891 174.061 18.0084 173.964 18.0312C173.864 18.0554 173.761 18.0672 173.658 18.0665C173.491 18.0805 173.324 18.0354 173.186 17.939C173.132 17.8851 173.09 17.8199 173.064 17.748C173.038 17.6761 173.029 17.5994 173.036 17.5233L173.038 13.6305Z" fill="white"/>
<path d="M182.574 17.8809C182.488 17.9333 182.395 17.9739 182.297 18.0016C182.16 18.045 182.016 18.0665 181.872 18.0654C181.707 18.0685 181.543 18.041 181.388 17.9845C181.269 17.948 181.17 17.8662 181.111 17.7567C180.988 17.5289 180.846 17.2169 180.685 16.8206C180.524 16.4242 180.351 15.9854 180.167 15.504C179.982 15.0188 179.799 14.5204 179.62 14.0086C179.441 13.4969 179.274 12.9981 179.119 12.5121C178.968 12.027 178.834 11.5919 178.716 11.207C178.793 11.1267 178.882 11.06 178.981 11.0099C179.098 10.9479 179.229 10.9162 179.361 10.9177C179.502 10.9091 179.642 10.9525 179.753 11.0396C179.858 11.1427 179.934 11.2726 179.971 11.4154L180.887 14.1931C181.182 15.0906 181.503 15.9971 181.849 16.9128H181.906C182.106 16.351 182.317 15.7435 182.539 15.0906C182.762 14.4376 182.979 13.7638 183.19 13.0691C183.401 12.3759 183.59 11.6982 183.758 11.0361C183.829 10.9968 183.905 10.9677 183.985 10.9496C184.076 10.9293 184.169 10.9194 184.262 10.92C184.409 10.9139 184.555 10.9567 184.676 11.0418C184.731 11.0867 184.775 11.1444 184.803 11.2098C184.831 11.2753 184.843 11.3466 184.837 11.4177C184.819 11.6429 184.776 11.8655 184.71 12.0816C184.626 12.4005 184.515 12.7741 184.376 13.2023C184.238 13.6305 184.086 14.077 183.921 14.5416C183.752 15.0078 183.582 15.4634 183.409 15.9083C183.236 16.3532 183.078 16.7488 182.933 17.095C182.828 17.3634 182.708 17.6258 182.574 17.8809Z" fill="white"/>
<path d="M187.354 14.7694H186.201V10.9951C186.248 10.9803 186.323 10.961 186.428 10.9382C186.532 10.9144 186.638 10.9026 186.745 10.9029C186.908 10.8904 187.07 10.9333 187.206 11.0248C187.26 11.0772 187.302 11.1413 187.328 11.2124C187.354 11.2834 187.364 11.3595 187.356 11.4348L187.354 14.7694ZM186.201 13.6146H187.354V17.9697C187.307 17.9845 187.24 18.0039 187.134 18.0266C187.032 18.0506 186.928 18.0625 186.823 18.0619C186.656 18.0759 186.489 18.0308 186.351 17.9344C186.297 17.8806 186.255 17.8154 186.229 17.7435C186.203 17.6716 186.194 17.5948 186.201 17.5187V13.6146Z" fill="white"/>
<path d="M190.566 15.3275H189.43V11.5965C189.426 11.5132 189.439 11.43 189.468 11.3518C189.496 11.2735 189.54 11.2018 189.597 11.1409C189.657 11.0822 189.728 11.0365 189.806 11.0067C189.884 10.977 189.968 10.9637 190.051 10.9678C190.156 10.9675 190.26 10.9789 190.362 11.002C190.434 11.0157 190.504 11.0391 190.569 11.0715L190.566 15.3275ZM189.43 13.5952H190.566V17.9036C190.528 17.9185 190.459 17.9401 190.359 17.9674C190.257 17.9941 190.153 18.0074 190.048 18.0073C189.964 18.0114 189.881 17.9981 189.803 17.9684C189.725 17.9386 189.653 17.8929 189.594 17.8342C189.537 17.7734 189.493 17.7017 189.464 17.6234C189.435 17.5452 189.423 17.4619 189.427 17.3786L189.43 13.5952ZM190.052 11.9313V10.9724H193.875C193.905 11.0337 193.93 11.0973 193.95 11.1626C193.978 11.2467 193.992 11.3348 193.991 11.4234C193.997 11.5558 193.956 11.686 193.878 11.7924C193.841 11.8381 193.795 11.8745 193.742 11.8987C193.688 11.9228 193.63 11.934 193.572 11.9313H190.052ZM190.052 14.8765V13.9301H193.519C193.558 13.9863 193.587 14.0486 193.605 14.1146C193.633 14.2003 193.646 14.2899 193.646 14.3799C193.653 14.5111 193.612 14.6404 193.532 14.7444C193.493 14.7895 193.445 14.8249 193.39 14.8478C193.335 14.8707 193.275 14.8805 193.216 14.8765H190.052ZM190.052 18.0073V17.0597H193.922C193.96 17.1146 193.989 17.1754 194.008 17.2397C194.037 17.3272 194.05 17.4187 194.049 17.5107C194.055 17.6415 194.015 17.7702 193.936 17.874C193.897 17.9193 193.848 17.9548 193.793 17.978C193.738 18.0011 193.678 18.0111 193.619 18.0073H190.052ZM191.756 9.35173C191.617 9.49067 191.458 9.65429 191.278 9.84259C191.097 10.0309 190.9 10.2177 190.685 10.4029C190.551 10.3926 190.423 10.3444 190.316 10.264C190.268 10.2282 190.229 10.1812 190.203 10.127C190.177 10.0728 190.165 10.0131 190.167 9.95306C190.164 9.85244 190.197 9.75399 190.259 9.67517C190.337 9.58083 190.422 9.49215 190.512 9.40981L191.122 8.80848C191.291 8.6298 191.522 8.52265 191.767 8.50895C191.892 8.50538 192.015 8.53526 192.125 8.59551C192.241 8.66594 192.345 8.75347 192.436 8.85518L193.379 9.89498C193.382 9.95953 193.372 10.024 193.349 10.0845C193.327 10.145 193.292 10.2002 193.247 10.2469C193.203 10.2913 193.15 10.326 193.091 10.3489C193.032 10.3719 192.97 10.3825 192.907 10.3801C192.806 10.3795 192.708 10.3495 192.624 10.2936C192.506 10.2092 192.4 10.11 192.307 9.99862L191.756 9.35173ZM192.424 19.5288C192.427 19.6163 192.412 19.7034 192.381 19.7849C192.349 19.8664 192.301 19.9405 192.239 20.0026C192.174 20.0655 192.096 20.1142 192.011 20.146C191.926 20.1777 191.835 20.1917 191.744 20.1871C191.655 20.191 191.567 20.1766 191.483 20.1449C191.4 20.1132 191.324 20.0648 191.26 20.0026C191.199 19.9404 191.151 19.8662 191.12 19.7848C191.088 19.7033 191.073 19.6162 191.077 19.5288C191.073 19.44 191.087 19.3514 191.12 19.2687C191.153 19.1861 191.203 19.1113 191.266 19.0494C191.396 18.929 191.568 18.8647 191.744 18.8706C191.834 18.866 191.925 18.8794 192.01 18.9101C192.095 18.9408 192.173 18.9881 192.239 19.0494C192.301 19.1127 192.35 19.1884 192.381 19.2716C192.412 19.3547 192.426 19.4435 192.421 19.5323L192.424 19.5288Z" fill="white"/>
<path d="M201.276 16.471V17.8445C201.184 17.9143 201.081 17.9671 200.971 18.0005C200.831 18.0449 200.686 18.0664 200.539 18.0643C200.352 18.0674 200.167 18.0285 199.998 17.9504C199.817 17.8492 199.672 17.694 199.583 17.5062L197.603 14.0896L197.262 13.4484C197.139 13.2206 197.022 13.0019 196.91 12.7901C196.799 12.5783 196.709 12.3949 196.64 12.2412L195.568 12.4951V11.1569C195.653 11.071 195.758 11.0076 195.874 10.9724C196.013 10.9256 196.159 10.9021 196.306 10.903C196.495 10.8982 196.682 10.9372 196.852 11.0168C197.032 11.116 197.175 11.2695 197.262 11.4553L199.254 14.872C199.361 15.0724 199.475 15.2862 199.595 15.5132C199.718 15.741 199.831 15.9619 199.935 16.1772C200.04 16.3924 200.125 16.578 200.194 16.7318L201.276 16.471ZM195.564 12.0931L196.566 12.035C196.597 12.297 196.622 12.5897 196.641 12.9131C196.661 13.2365 196.675 13.5645 196.687 13.8948C196.698 14.2251 196.705 14.5417 196.705 14.8424V17.9732C196.658 17.988 196.591 18.0073 196.486 18.0301C196.384 18.0541 196.279 18.066 196.175 18.0654C196.012 18.078 195.849 18.035 195.714 17.9436C195.66 17.8931 195.618 17.8309 195.592 17.7618C195.566 17.6927 195.557 17.6185 195.564 17.545V12.0931ZM201.276 16.8764L200.263 16.9345C200.194 16.3024 200.15 15.6738 200.142 15.0451C200.134 14.4164 200.125 13.8117 200.125 13.2229V10.9838C200.179 10.9694 200.254 10.9523 200.352 10.9326C200.452 10.9125 200.555 10.9026 200.657 10.903C200.824 10.8894 200.989 10.9323 201.128 11.0248C201.182 11.0753 201.224 11.1375 201.25 11.2066C201.276 11.2757 201.286 11.3499 201.278 11.4234L201.276 16.8764Z" fill="white"/>
</g>
<defs>
<clipPath id="clip0_24_302">
<rect width="204" height="50" fill="white"/>
</clipPath>
</defs>
</svg>
